<?xml version="1.0" encoding="UTF-8" standalone="no"?>
<!-- Created with Inkscape (http://www.inkscape.org/) -->

<svg
   xmlns:dc="http://purl.org/dc/elements/1.1/"
   xmlns:cc="http://creativecommons.org/ns#"
   xmlns:rdf="http://www.w3.org/1999/02/22-rdf-syntax-ns#"
   xmlns:svg="http://www.w3.org/2000/svg"
   xmlns="http://www.w3.org/2000/svg"
   xmlns:xlink="http://www.w3.org/1999/xlink"
   xmlns:sodipodi="http://sodipodi.sourceforge.net/DTD/sodipodi-0.dtd"
   xmlns:inkscape="http://www.inkscape.org/namespaces/inkscape"
   sodipodi:docname="joker_black.svg"
   inkscape:version="0.92.4 (5da689c313, 2019-01-14)"
   sodipodi:version="0.32"
   version="1.0"
   x="0.0000000"
   y="0.0000000"
   preserveAspectRatio="xMinYMin meet"
   viewBox="0 0 140 190"
   id="svg2">
  <sodipodi:namedview
     inkscape:current-layer="svg2"
     inkscape:window-y="26"
     inkscape:window-x="0"
     inkscape:cy="95"
     inkscape:cx="70"
     inkscape:zoom="2.9894737"
     inkscape:window-height="791"
     inkscape:window-width="1152"
     inkscape:pageshadow="2"
     inkscape:pageopacity="0.0"
     borderopacity="1.0"
     bordercolor="#666666"
     pagecolor="#ffffff"
     id="base"
     showgrid="false"
     inkscape:window-maximized="0" />
  <defs
     id="defs3">
    <linearGradient
       id="linearGradient2060">
      <stop
         style="stop-color:#ebf0d0;stop-opacity:1.0000000;"
         offset="0.0000000"
         id="stop2062" />
      <stop
         style="stop-color:#ffffeb;stop-opacity:1.0000000;"
         offset="1.0000000"
         id="stop2064" />
    </linearGradient>
    <linearGradient
       x1="2.0000000"
       y1="63.099518"
       x2="109.00000"
       y2="128.69501"
       id="linearGradient4853"
       xlink:href="#linearGradient2060"
       gradientUnits="userSpaceOnUse"
       gradientTransform="translate(0.000000,-1.000000)" />
    <linearGradient
       id="linearGradient6214">
      <stop
         id="stop6216"
         offset="0.0000000"
         style="stop-color:#c10000;stop-opacity:1.0000000;" />
      <stop
         id="stop6218"
         offset="1.0000000"
         style="stop-color:#ff433e;stop-opacity:1.0000000;" />
    </linearGradient>
    <linearGradient
       id="linearGradient5417">
      <stop
         style="stop-color:#f0a700;stop-opacity:1.0000000;"
         offset="0.0000000"
         id="stop5419" />
      <stop
         style="stop-color:#ffed00;stop-opacity:1.0000000;"
         offset="1.0000000"
         id="stop5421" />
    </linearGradient>
    <linearGradient
       id="linearGradient5407">
      <stop
         id="stop5409"
         offset="0.0000000"
         style="stop-color:#f0eb00;stop-opacity:1.0000000;" />
      <stop
         id="stop5411"
         offset="1.0000000"
         style="stop-color:#ffff00;stop-opacity:1.0000000;" />
    </linearGradient>
    <linearGradient
       id="linearGradient3865">
      <stop
         id="stop3867"
         offset="0"
         style="stop-color:#0083cc;stop-opacity:1;" />
      <stop
         id="stop3869"
         offset="1.0000000"
         style="stop-color:#24a4cc;stop-opacity:1.0000000;" />
    </linearGradient>
    <linearGradient
       id="linearGradient3857">
      <stop
         id="stop3859"
         offset="0.0000000"
         style="stop-color:#ffd8c1;stop-opacity:1.0000000;" />
      <stop
         id="stop3861"
         offset="1.0000000"
         style="stop-color:#ffeded;stop-opacity:1.0000000;" />
    </linearGradient>
    <linearGradient
       id="linearGradient2580"
       inkscape:collect="always">
      <stop
         id="stop2582"
         offset="0"
         style="stop-color:#ffffff;stop-opacity:1;" />
      <stop
         id="stop2584"
         offset="1"
         style="stop-color:#ffffff;stop-opacity:0;" />
    </linearGradient>
    <linearGradient
       id="linearGradient3196">
      <stop
         id="stop3198"
         offset="0.0000000"
         style="stop-color:#008200;stop-opacity:1.0000000;" />
      <stop
         id="stop3200"
         offset="1.0000000"
         style="stop-color:#00d000;stop-opacity:1.0000000;" />
    </linearGradient>
    <linearGradient
       id="linearGradient4408">
      <stop
         id="stop4410"
         offset="0.0000000"
         style="stop-color:#ff44ab;stop-opacity:1.0000000;" />
      <stop
         id="stop4412"
         offset="1.0000000"
         style="stop-color:#ff66cc;stop-opacity:1.0000000;" />
    </linearGradient>
    <linearGradient
       y2="76.889107"
       x2="182.72025"
       y1="79.186508"
       x1="168.50224"
       gradientTransform="matrix(0.999895,0.000000,0.000000,1.000000,-106.8745,-3.645850)"
       gradientUnits="userSpaceOnUse"
       id="linearGradient1578"
       xlink:href="#linearGradient5407"
       inkscape:collect="always" />
    <linearGradient
       y2="66.479034"
       x2="154.42813"
       y1="68.058495"
       x1="152.34610"
       gradientTransform="matrix(0.999895,0.000000,0.000000,1.000000,-61.86458,-7.522710)"
       gradientUnits="userSpaceOnUse"
       id="linearGradient1583"
       xlink:href="#linearGradient5407"
       inkscape:collect="always" />
    <linearGradient
       y2="66.479034"
       x2="154.42813"
       y1="68.058495"
       x1="152.34610"
       gradientTransform="matrix(0.999895,0.000000,0.000000,1.000000,-106.8745,-3.645850)"
       gradientUnits="userSpaceOnUse"
       id="linearGradient1586"
       xlink:href="#linearGradient5407"
       inkscape:collect="always" />
    <linearGradient
       y2="66.479034"
       x2="154.42813"
       y1="68.058495"
       x1="152.34610"
       gradientTransform="matrix(0.999895,0.000000,0.000000,1.000000,-97.25514,-12.90723)"
       gradientUnits="userSpaceOnUse"
       id="linearGradient1590"
       xlink:href="#linearGradient5407"
       inkscape:collect="always" />
    <linearGradient
       y2="65.100365"
       x2="185.69273"
       y1="73.100365"
       x1="165.46875"
       gradientTransform="matrix(0.999895,0.000000,0.000000,1.000000,-106.8745,-3.645850)"
       gradientUnits="userSpaceOnUse"
       id="linearGradient1593"
       xlink:href="#linearGradient6214"
       inkscape:collect="always" />
    <linearGradient
       y2="310.92441"
       x2="319.80237"
       y1="336.44974"
       x1="298.10107"
       gradientTransform="matrix(0.144842,0.000000,0.000000,0.144857,18.21219,50.44299)"
       gradientUnits="userSpaceOnUse"
       id="linearGradient1598"
       xlink:href="#linearGradient6214"
       inkscape:collect="always" />
    <linearGradient
       y2="256.17966"
       x2="484.79608"
       y1="437.49887"
       x1="356.44232"
       gradientTransform="matrix(0.186805,0.000000,0.000000,0.144857,-4.578319,37.10964)"
       gradientUnits="userSpaceOnUse"
       id="linearGradient1609"
       xlink:href="#linearGradient3857"
       inkscape:collect="always" />
    <linearGradient
       y2="111.38054"
       x2="196.72330"
       y1="111.38054"
       x1="154.61981"
       gradientTransform="matrix(0.999895,0.000000,0.000000,1.000000,-106.8745,-3.645850)"
       gradientUnits="userSpaceOnUse"
       id="linearGradient1612"
       xlink:href="#linearGradient3196"
       inkscape:collect="always" />
    <linearGradient
       y2="123.97391"
       x2="173.85988"
       y1="124.37165"
       x1="171.07565"
       gradientTransform="matrix(0.999895,0.000000,0.000000,1.000000,-106.5654,-2.420410)"
       gradientUnits="userSpaceOnUse"
       id="linearGradient1615"
       xlink:href="#linearGradient5407"
       inkscape:collect="always" />
    <linearGradient
       y2="122.95744"
       x2="175.18570"
       y1="124.59262"
       x1="169.79402"
       gradientTransform="matrix(0.999895,0.000000,0.000000,1.000000,-106.5654,-2.420410)"
       gradientUnits="userSpaceOnUse"
       id="linearGradient1618"
       xlink:href="#linearGradient3196"
       inkscape:collect="always" />
    <linearGradient
       y2="415.53949"
       x2="449.32318"
       y1="540.53918"
       x1="298.98572"
       gradientTransform="matrix(0.144842,0.000000,0.000000,0.144857,18.35057,50.40963)"
       gradientUnits="userSpaceOnUse"
       id="linearGradient1621"
       xlink:href="#linearGradient6214"
       inkscape:collect="always" />
    <linearGradient
       gradientUnits="userSpaceOnUse"
       y2="67.840782"
       x2="95.058792"
       y1="28.208555"
       x1="142.73665"
       gradientTransform="scale(0.729335,1.371112)"
       id="linearGradient2396"
       xlink:href="#linearGradient2580"
       inkscape:collect="always" />
  </defs>
  <g
     id="layer1"
     inkscape:groupmode="layer"
     inkscape:label="Layer 1">
    <g
       id="g5630">
      <path
         id="rect1306"
         d="M 18.000000,1.9999995 L 121.00000,1.9999995 C 129.86400,1.9999995 137.00000,9.1359995 137.00000,18.000000 L 137.00000,171.00000 C 137.00000,179.86400 129.86400,187.00000 121.00000,187.00000 L 18.000000,187.00000 C 9.1360000,187.00000 2.0000000,179.86400 2.0000000,171.00000 L 2.0000000,18.000000 C 2.0000000,9.1359995 9.1360000,1.9999995 18.000000,1.9999995 z "
         style="fill:#ffffff;fill-opacity:1.0000000;stroke:black;stroke-width:0.70000000;stroke-miterlimit:4.0000000;stroke-dashoffset:0.0000000;stroke-opacity:1.0000000" />
    </g>
    <g
       inkscape:label="Layer 1"
       inkscape:groupmode="layer"
       id="g5495"
       transform="translate(-448.5000,-231.5000)" />
  </g>
  <g
     transform="matrix(0.286429,0.000000,0.000000,0.388772,-29.61360,-4.469200)"
     style="fill:#ff0000;fill-opacity:1.0000000"
     id="g1390" />
  <path
     id="text1386"
     style="font-style:normal;font-variant:normal;font-weight:bold;font-stretch:normal;font-size:15.59969807px;font-family:'Bitstream Vera Sans';writing-mode:lr-tb;text-anchor:middle;fill:#000000;fill-opacity:1;stroke:none;stroke-width:1.10678935px;stroke-linecap:butt;stroke-linejoin:miter;stroke-opacity:1"
     d="m 13.913687,87.080808 v 4.651766 H 10.590201 V 79.440386 h 5.075869 c 1.697703,1.2e-5 2.940772,0.271707 3.72921,0.815088 0.794172,0.543403 1.191263,1.4024 1.191276,2.576995 -1.3e-5,0.812353 -0.20719,1.479242 -0.621535,2.000671 -0.408614,0.521443 -1.02727,0.90566 -1.855973,1.152651 0.454632,0.0988 0.860355,0.323844 1.217173,0.675123 0.362551,0.3458 0.727989,0.872725 1.096318,1.580777 l 1.804178,3.490883 h -3.539296 l -1.571103,-3.054523 c -0.31653,-0.614743 -0.638807,-1.034637 -0.966832,-1.259681 -0.322285,-0.225037 -0.753905,-0.337558 -1.294864,-0.337562 h -0.940935 m 1.398453,-2.190035 c 0.696343,7e-6 1.194146,-0.123492 1.493411,-0.370494 0.305004,-0.24699 0.457511,-0.653161 0.457518,-1.218516 -7e-6,-0.55985 -0.152514,-0.960532 -0.457518,-1.202049 -0.299265,-0.241498 -0.797068,-0.362252 -1.493411,-0.362262 h -1.398453 v 3.153321 H 15.31214 M 11.349856,62.578761 h 8.969093 v 2.395865 h -5.645608 v 2.288834 h 5.308944 v 2.395864 h -5.308944 v 2.81576 h 5.835522 v 2.395865 H 11.349856 V 62.578761 M 10.538407,45.717145 h 3.323485 v 4.4871 l 4.790999,-4.4871 h 3.858696 l -6.206717,5.820881 6.845516,6.471306 h -4.160831 l -5.127663,-4.841129 v 4.841129 H 10.538407 V 45.717145 m 5.231252,-17.083919 c 2.071773,1.3e-5 3.694668,0.56536 4.868691,1.696043 1.173996,1.130704 1.761002,2.692269 1.761015,4.684698 -1.3e-5,1.986954 -0.587019,3.545774 -1.761015,4.676466 -1.174023,1.130695 -2.796918,1.696041 -4.868691,1.696041 -2.066033,0 -3.688928,-0.565346 -4.86869,-1.696041 -1.174012,-1.130692 -1.761016,-2.689512 -1.761016,-4.676466 0,-1.992429 0.587004,-3.553994 1.761016,-4.684698 1.179762,-1.130683 2.802657,-1.69603 4.86869,-1.696043 m 0,2.297068 c -1.012878,10e-6 -1.798428,0.356781 -2.356653,1.070318 -0.558235,0.713553 -0.83735,1.718004 -0.837346,3.013355 -4e-6,1.289875 0.279111,2.291582 0.837346,3.005123 0.558225,0.713548 1.343775,1.07032 2.356653,1.070318 1.018618,2e-6 1.807046,-0.35677 2.365286,-1.070318 0.558221,-0.713541 0.837335,-1.715248 0.837346,-3.005123 -1.1e-5,-1.295351 -0.279125,-2.299802 -0.837346,-3.013355 -0.55824,-0.713537 -1.346668,-1.070308 -2.365286,-1.070318 M 16.112233,9.993903 h 3.323485 v 11.098372 c -4e-6,1.531377 -0.437381,2.675793 -1.312129,3.43325 -0.869001,0.757453 -2.186884,1.13618 -3.953653,1.136184 l -3.038652,-0.236532 0.776414,-2.326587 2.106855,0.167254 c 0.690594,-2e-6 1.211417,-0.183877 1.562469,-0.551626 0.356805,-0.367751 0.535209,-0.908398 0.535211,-1.621943 V 9.993903" />
  <g
     transform="matrix(-0.286429,0.000000,0.000000,-0.388772,168.4791,193.4692)"
     style="fill:#ff0000;fill-opacity:1.0000000"
     id="g1406" />
  <g
     id="g2398">
    <path
       style="fill:#000000;fill-opacity:1.0000000;stroke:none;stroke-width:2.0000000;stroke-miterlimit:4.0000000;stroke-dashoffset:0.0000000;stroke-opacity:1.0000000"
       d="M 63.013934,44.635400 C 58.134206,45.125954 56.331635,50.531993 52.608776,52.260400 C 52.754191,54.937219 47.298264,56.528283 46.171952,59.635400 C 39.630139,59.922303 42.783888,70.155780 48.202989,66.635400 C 49.774464,61.537027 56.018328,60.985657 53.358697,67.822900 C 50.533964,78.207273 48.940111,90.746461 56.310467,100.03977 C 52.972718,99.861510 36.696027,98.961490 44.802686,102.64881 C 49.221182,105.33837 63.168587,104.16827 53.661316,109.30219 C 49.845966,111.95837 39.308553,121.63967 49.077897,117.60415 C 48.646302,123.30244 49.009524,129.94291 48.890417,135.97915 C 59.714620,140.79220 71.457497,140.32311 82.824353,139.41665 C 85.650936,137.23909 95.114243,138.66877 93.510731,132.57290 C 93.227021,126.18956 94.489528,118.12051 91.917148,112.82290 C 103.22411,114.32790 92.563311,109.23954 87.446058,106.71508 C 79.781883,104.04858 92.840671,99.959830 94.695237,95.709104 C 100.03833,90.065611 82.055464,99.730480 85.116473,95.021681 C 89.703771,86.453134 85.376505,77.063818 85.805710,68.135400 C 86.169112,65.600320 81.895091,54.010613 88.016718,58.743947 C 86.636533,65.322242 97.810949,63.082488 94.291899,57.635400 C 88.714285,57.732981 86.274721,47.913365 79.668435,48.916650 C 74.843131,51.787383 73.946905,56.142453 71.763015,48.604150 C 69.687913,45.959872 66.457002,44.081520 63.013934,44.635400 z M 62.920193,53.541650 C 68.815184,61.158963 54.262233,51.328592 62.920193,53.541650 z "
       id="path4190"
       sodipodi:nodetypes="cccccccccccccccccccccccc" />
    <path
       sodipodi:nodetypes="ccccccc"
       id="path5463"
       d="M 63.613731,106.93115 C 56.565411,106.93115 50.890247,112.60691 50.890247,119.65596 L 50.890247,134.58532 C 60.269152,139.23445 80.413326,139.47914 91.504892,134.58532 L 91.504892,119.65596 C 91.504892,112.60691 85.829728,106.93115 78.781408,106.93115 L 63.613731,106.93115 z "
       style="fill:url(#linearGradient1621);fill-opacity:1.0000000;stroke:none;stroke-width:2.0000000;stroke-miterlimit:4.0000000;stroke-dashoffset:0.0000000;stroke-opacity:1.0000000" />
    <path
       sodipodi:nodetypes="cccccccccc"
       id="path1427"
       d="M 66.862729,106.88584 L 60.479730,116.70858 L 65.059029,124.25518 L 59.274106,133.32107 L 61.549997,137.51700 C 64.095650,137.91567 66.508747,138.09337 68.921833,138.05010 L 71.732168,133.85696 L 66.380810,124.20960 L 71.196334,115.77078 L 66.862729,106.88584 z "
       style="fill:url(#linearGradient1618);fill-opacity:1.0000000;fill-rule:evenodd;stroke:none;stroke-width:1.0000000px;stroke-linecap:butt;stroke-linejoin:miter;stroke-opacity:1.0000000" />
    <path
       style="fill:url(#linearGradient1615);fill-opacity:1.0000000;fill-rule:evenodd;stroke:none;stroke-width:1.0000000px;stroke-linecap:butt;stroke-linejoin:miter;stroke-opacity:1.0000000"
       d="M 66.862729,106.88584 L 63.617190,117.15052 L 65.456737,124.34357 L 61.527770,133.40946 L 63.229201,137.69378 C 64.802686,137.91567 66.199419,137.96079 67.021683,137.96171 L 68.727284,133.94535 L 65.806350,124.29799 L 67.793742,116.78725 L 66.862729,106.88584 z "
       id="path2189"
       sodipodi:nodetypes="cccccccccc" />
    <path
       sodipodi:nodetypes="cccccccccccc"
       id="path2493"
       d="M 59.747287,101.79094 L 46.789267,101.52914 L 60.139955,105.58713 L 48.229046,115.79754 L 67.077067,107.02705 L 81.343979,121.29546 C 81.343979,121.29546 73.228861,108.07428 74.014188,108.85970 C 74.799526,109.64511 92.076882,110.82324 92.076882,110.82324 L 81.605751,105.32532 C 81.605751,105.32532 92.076882,96.031222 91.553327,96.554830 C 91.029772,97.078440 72.574410,102.44546 72.574410,102.44546 L 59.747287,101.79094 z "
       style="fill:url(#linearGradient1612);fill-opacity:1.0000000;fill-rule:evenodd;stroke:none;stroke-width:1.0000000px;stroke-linecap:butt;stroke-linejoin:miter;stroke-opacity:1.0000000" />
    <path
       id="path5459"
       d="M 85.984171,84.457199 C 85.984171,95.870531 78.421096,105.13353 69.102304,105.13353 C 59.783523,105.13353 52.220447,95.870531 52.220447,84.457199 C 52.220447,73.043866 59.783523,63.780871 69.102304,63.780871 C 78.421096,63.780871 85.984171,73.043866 85.984171,84.457199 z "
       style="fill:url(#linearGradient1609);fill-opacity:1.0000000;stroke:none;stroke-width:2.0000000;stroke-miterlimit:4.0000000;stroke-dashoffset:0.0000000;stroke-opacity:1.0000000" />
    <g
       transform="matrix(0.144842,0.000000,0.000000,9.790296e-2,18.01381,61.17309)"
       id="g5467">
      <path
         id="path5469"
         d="M 353.00000,245.86218 C 353.00000,257.73018 343.59200,267.36218 332.00000,267.36218 C 320.40800,267.36218 311.00000,257.73018 311.00000,245.86218 C 311.00000,233.99418 320.40800,224.36218 332.00000,224.36218 C 343.59200,224.36218 353.00000,233.99418 353.00000,245.86218 z "
         style="fill:#ffffff;fill-opacity:1.0000000;stroke:none;stroke-width:2.0000000;stroke-miterlimit:4.0000000;stroke-dashoffset:0.0000000;stroke-opacity:1.0000000"
         transform="translate(-4.000000,-6.000000)" />
      <path
         id="path5471"
         d="M 353.00000,245.86218 C 353.00000,257.73018 343.59200,267.36218 332.00000,267.36218 C 320.40800,267.36218 311.00000,257.73018 311.00000,245.86218 C 311.00000,233.99418 320.40800,224.36218 332.00000,224.36218 C 343.59200,224.36218 353.00000,233.99418 353.00000,245.86218 z "
         style="fill:#1e2ecf;fill-opacity:1.0000000;stroke:none;stroke-width:2.0000000;stroke-miterlimit:4.0000000;stroke-dashoffset:0.0000000;stroke-opacity:1.0000000"
         transform="matrix(0.571429,0.000000,0.000000,0.837210,129.2857,34.52408)" />
      <path
         id="path5473"
         d="M 353.00000,245.86218 C 353.00000,257.73018 343.59200,267.36218 332.00000,267.36218 C 320.40800,267.36218 311.00000,257.73018 311.00000,245.86218 C 311.00000,233.99418 320.40800,224.36218 332.00000,224.36218 C 343.59200,224.36218 353.00000,233.99418 353.00000,245.86218 z "
         style="fill:#000000;fill-opacity:1.0000000;stroke:none;stroke-width:2.0000000;stroke-miterlimit:4.0000000;stroke-dashoffset:0.0000000;stroke-opacity:1.0000000"
         transform="matrix(0.357143,0.000000,0.000000,0.674419,195.9286,76.04816)" />
    </g>
    <g
       transform="matrix(0.144842,0.000000,0.000000,9.790296e-2,7.926368,60.83217)"
       id="g5475">
      <path
         id="path5477"
         d="M 353.00000,245.86218 C 353.00000,257.73018 343.59200,267.36218 332.00000,267.36218 C 320.40800,267.36218 311.00000,257.73018 311.00000,245.86218 C 311.00000,233.99418 320.40800,224.36218 332.00000,224.36218 C 343.59200,224.36218 353.00000,233.99418 353.00000,245.86218 z "
         style="fill:#ffffff;fill-opacity:1.0000000;stroke:none;stroke-width:2.0000000;stroke-miterlimit:4.0000000;stroke-dashoffset:0.0000000;stroke-opacity:1.0000000"
         transform="translate(-4.000000,-6.000000)" />
      <path
         id="path5479"
         d="M 353.00000,245.86218 C 353.00000,257.73018 343.59200,267.36218 332.00000,267.36218 C 320.40800,267.36218 311.00000,257.73018 311.00000,245.86218 C 311.00000,233.99418 320.40800,224.36218 332.00000,224.36218 C 343.59200,224.36218 353.00000,233.99418 353.00000,245.86218 z "
         style="fill:#1e2ecf;fill-opacity:1.0000000;stroke:none;stroke-width:2.0000000;stroke-miterlimit:4.0000000;stroke-dashoffset:0.0000000;stroke-opacity:1.0000000"
         transform="matrix(0.571429,0.000000,0.000000,0.837210,129.2857,34.52408)" />
      <path
         id="path5481"
         d="M 353.00000,245.86218 C 353.00000,257.73018 343.59200,267.36218 332.00000,267.36218 C 320.40800,267.36218 311.00000,257.73018 311.00000,245.86218 C 311.00000,233.99418 320.40800,224.36218 332.00000,224.36218 C 343.59200,224.36218 353.00000,233.99418 353.00000,245.86218 z "
         style="fill:#000000;fill-opacity:1.0000000;stroke:none;stroke-width:2.0000000;stroke-miterlimit:4.0000000;stroke-dashoffset:0.0000000;stroke-opacity:1.0000000"
         transform="matrix(0.357143,0.000000,0.000000,0.674419,195.9286,76.04816)" />
    </g>
    <path
       sodipodi:nodetypes="ccc"
       id="path5483"
       d="M 57.349948,95.301101 C 58.594818,101.37961 64.752921,99.647150 69.178056,94.691912 C 64.321506,94.801623 61.004245,95.136402 57.349948,95.301101 z "
       style="fill:url(#linearGradient1598);fill-opacity:1.0000000;fill-rule:evenodd;stroke:none;stroke-width:1.0000000px;stroke-linecap:butt;stroke-linejoin:miter;stroke-opacity:1.0000000" />
    <path
       sodipodi:nodetypes="ccccc"
       id="path5485"
       d="M 77.843746,122.94423 L 79.107204,123.06749 L 80.478420,137.58025 L 77.013593,137.83065 L 77.843746,122.94423 z "
       style="fill:#700000;fill-opacity:1.0000000;stroke:none;stroke-width:2.0000000;stroke-miterlimit:4.0000000;stroke-dashoffset:0.0000000;stroke-opacity:1.0000000" />
    <path
       style="fill:#000000;fill-opacity:1.0000000;fill-rule:evenodd;stroke:none;stroke-width:1.0000000px;stroke-linecap:butt;stroke-linejoin:miter;stroke-opacity:1.0000000"
       d="M 59.671195,86.303067 C 58.879378,87.589897 55.340769,88.487106 55.505012,89.459546 C 55.669265,90.431986 59.086106,91.186568 59.875983,91.747178 L 60.206798,91.269288 C 59.512181,90.776278 56.698207,90.296723 56.563161,89.497173 C 56.428125,88.697613 59.731428,87.648390 60.471980,86.444850 L 59.671195,86.303067 z "
       id="path5487"
       sodipodi:nodetypes="ccccccc" />
    <path
       style="fill:url(#linearGradient1593);fill-opacity:1.0000000;fill-rule:evenodd;stroke:none;stroke-width:1.0000000px;stroke-linecap:butt;stroke-linejoin:miter;stroke-opacity:1.0000000"
       d="M 63.545128,46.572900 C 60.660921,46.884614 57.884152,49.185471 56.295889,53.385400 C 68.284170,44.985543 66.044865,62.072900 66.044865,62.072900 C 65.893531,62.000515 65.548957,62.008904 65.513671,61.885400 C 65.134781,60.559148 54.010909,46.101986 46.578159,63.197900 C 56.608396,55.566112 56.633114,62.864030 55.327241,68.260400 C 54.763510,71.512568 53.733658,75.510403 53.733658,75.510400 C 64.150154,73.299366 74.146395,74.461692 84.480429,76.291650 C 84.480429,76.291650 84.526105,72.155676 84.346173,71.005763 C 85.103954,64.563968 77.163398,52.333452 90.797506,58.617758 C 76.137205,38.629868 74.045985,62.830757 73.856545,62.072900 C 73.854375,62.064205 73.798201,62.080905 73.794052,62.072900 C 73.351038,51.030550 68.307148,46.058240 63.545128,46.572900 z "
       id="path5608"
       sodipodi:nodetypes="ccccccccccccc" />
    <path
       style="fill:url(#linearGradient1590);fill-opacity:1.0000000;stroke:none;stroke-width:2.0000000;stroke-miterlimit:4.0000000;stroke-dashoffset:0.0000000;stroke-opacity:1.0000000"
       d="M 57.587493,54.289738 C 57.587493,55.260675 56.767409,56.048682 55.756946,56.048682 C 54.746492,56.048682 53.926398,55.260675 53.926398,54.289738 C 53.926398,53.318801 54.746492,52.530794 55.756946,52.530794 C 56.767409,52.530794 57.587493,53.318801 57.587493,54.289738 z "
       id="path2485" />
    <path
       sodipodi:nodetypes="ccc"
       id="path7129"
       d="M 58.426455,95.676079 C 59.671325,100.38391 64.002050,97.889970 67.564266,95.219187 C 62.707716,95.328897 62.080752,95.511379 58.426455,95.676079 z "
       style="fill:#ffffff;fill-opacity:1.0000000;fill-rule:evenodd;stroke:none;stroke-width:1.0000000px;stroke-linecap:butt;stroke-linejoin:miter;stroke-opacity:1.0000000" />
    <path
       id="path2193"
       d="M 47.968154,63.551118 C 47.968154,64.522055 47.148070,65.310062 46.137606,65.310062 C 45.127152,65.310062 44.307058,64.522055 44.307058,63.551118 C 44.307058,62.580181 45.127152,61.792174 46.137606,61.792174 C 47.148070,61.792174 47.968154,62.580181 47.968154,63.551118 z "
       style="fill:url(#linearGradient1586);fill-opacity:1.0000000;stroke:none;stroke-width:2.0000000;stroke-miterlimit:4.0000000;stroke-dashoffset:0.0000000;stroke-opacity:1.0000000" />
    <path
       id="path2489"
       d="M 92.978047,59.674262 C 92.978047,60.645199 92.157963,61.433206 91.147499,61.433206 C 90.137045,61.433206 89.316951,60.645199 89.316951,59.674262 C 89.316951,58.703325 90.137045,57.915318 91.147499,57.915318 C 92.157963,57.915318 92.978047,58.703325 92.978047,59.674262 z "
       style="fill:url(#linearGradient1583);fill-opacity:1.0000000;stroke:none;stroke-width:2.0000000;stroke-miterlimit:4.0000000;stroke-dashoffset:0.0000000;stroke-opacity:1.0000000" />
    <path
       style="fill:#000000;fill-opacity:1.0000000;fill-rule:evenodd;stroke:none;stroke-width:1.0000000px;stroke-linecap:butt;stroke-linejoin:miter;stroke-opacity:1.0000000"
       d="M 80.700306,88.798396 C 86.515536,90.057028 85.926547,79.931619 80.448153,83.591117 L 80.909584,83.670458 C 84.752211,81.484035 85.750076,88.962638 79.852155,88.893447 L 80.700306,88.798396 z "
       id="path3263"
       sodipodi:nodetypes="ccccc" />
    <path
       sodipodi:nodetypes="ccccc"
       id="path3265"
       d="M 81.141230,87.755810 C 84.459262,88.473955 84.123197,82.696642 80.997355,84.784663 L 81.165917,84.782567 C 83.358427,83.535047 84.022507,87.849522 80.657301,87.810044 L 81.141230,87.755810 z "
       style="fill:#000000;fill-opacity:1.0000000;fill-rule:evenodd;stroke:none;stroke-width:1.0000000px;stroke-linecap:butt;stroke-linejoin:miter;stroke-opacity:1.0000000" />
    <path
       sodipodi:nodetypes="ccccc"
       id="path3267"
       d="M 53.639268,76.007315 L 54.285340,73.494537 C 64.646462,72.417632 75.438309,72.561220 84.291929,74.356061 C 84.579079,75.002204 84.579069,76.438076 84.579069,76.438076 C 74.409377,74.786823 64.167892,74.715029 53.639268,76.007315 z "
       style="fill:url(#linearGradient1578);fill-opacity:1.0000000;fill-rule:evenodd;stroke:none;stroke-width:1.0000000px;stroke-linecap:butt;stroke-linejoin:miter;stroke-opacity:1.0000000" />
    <path
       style="stroke-opacity:1.0000000;stroke-dashoffset:0.0000000;stroke-miterlimit:4.0000000;stroke-width:2.0000000;stroke:none;fill-opacity:1.0;fill:url(#linearGradient2396)"
       d="M 63.541028,46.578266 C 60.795866,46.874952 58.191380,49.036548 56.573010,52.859516 C 56.311317,52.720852 56.080372,52.547016 55.760595,52.547016 C 54.750141,52.547016 53.917039,53.326078 53.917039,54.297016 C 53.917039,54.662210 54.124717,54.953277 54.323246,55.234516 C 51.876503,55.682063 49.373416,57.624059 47.136501,62.203266 C 46.838072,62.000317 46.529765,61.797015 46.136606,61.797016 C 45.126152,61.797016 44.293059,62.576079 44.293049,63.547016 C 44.293049,64.517953 45.126152,65.328268 46.136606,65.328266 C 47.147070,65.328266 47.948916,64.517953 47.948916,63.547016 C 47.948916,63.158909 47.733308,62.869271 47.511461,62.578266 C 56.511566,56.218631 56.582679,63.060857 55.323141,68.265766 C 54.759410,71.517934 53.729558,75.515769 53.729558,75.515766 C 53.739857,75.513580 53.750506,75.517945 53.760805,75.515766 L 53.635818,76.015766 C 53.667015,76.011937 53.698362,76.019571 53.729558,76.015766 C 52.778928,78.601942 52.229716,81.434675 52.229716,84.453266 C 52.229716,91.737168 55.327681,98.113516 59.978902,101.79702 L 59.728928,101.79702 L 46.792787,101.54702 L 60.135136,105.57827 L 48.230136,115.79702 L 52.479690,113.82827 C 51.551147,115.59681 50.886107,117.52855 50.886107,119.67202 L 50.886107,134.57827 C 53.627179,135.93701 57.393354,136.80275 61.478745,137.39076 L 61.541238,137.51576 C 62.113078,137.60531 62.637353,137.57351 63.197314,137.64076 L 63.228561,137.70326 C 64.802046,137.92515 66.187150,137.95234 67.009414,137.95326 L 67.040661,137.92201 C 67.656096,137.93956 68.302198,138.05801 68.915464,138.04701 C 71.647767,138.12217 74.289110,137.91192 77.008364,137.67201 L 77.008364,137.82826 L 80.476750,137.57826 L 80.445503,137.39076 C 84.532944,136.80999 88.402947,135.94776 91.506841,134.57827 L 91.506841,119.67202 C 91.506841,116.04126 89.961864,112.79870 87.538508,110.48452 C 89.278605,110.61601 92.069282,110.82827 92.069282,110.82827 L 81.601632,105.32827 C 81.601632,105.32827 92.061643,96.023408 91.538088,96.547016 C 91.219082,96.866056 85.223051,98.691376 79.820569,100.29702 C 83.550657,96.503396 85.976172,90.851085 85.976172,84.453266 C 85.976172,81.460469 85.442928,78.647112 84.507576,76.078266 C 84.505927,75.999184 84.482869,75.835364 84.476330,75.703266 C 84.482399,74.958067 84.511056,72.036474 84.351343,71.015766 C 85.092625,64.714256 77.637448,52.958373 90.069492,58.328266 C 89.632378,58.649802 89.319571,59.102588 89.319571,59.672016 C 89.319571,60.642953 90.121427,61.453266 91.131881,61.453266 C 92.142345,61.453266 92.975447,60.642955 92.975437,59.672016 C 92.975437,58.701079 92.142345,57.922015 91.131881,57.922016 C 90.848361,57.922016 90.652841,58.092553 90.413206,58.203266 C 76.120717,39.211668 74.040116,62.829060 73.852445,62.078266 C 73.850276,62.069571 73.794102,62.086271 73.789952,62.078266 C 73.346938,51.035916 68.303048,46.063606 63.541028,46.578266 z M 62.884847,51.203266 C 67.312602,52.465395 66.040766,62.078266 66.040766,62.078266 C 65.889432,62.005881 65.544858,62.014270 65.509571,61.890766 C 65.295684,61.142077 61.631919,56.344938 57.166698,55.265766 C 57.375566,54.979998 57.572905,54.672489 57.572905,54.297016 C 57.572905,53.786986 57.340529,53.337137 56.979217,53.015766 C 59.565066,51.358447 61.540998,50.820203 62.884847,51.203266 z "
       id="path4065" />
  </g>
  <metadata
     id="metadata79">
    <rdf:RDF>
      <cc:Work
         rdf:about="">
        <dc:title>card</dc:title>
        <dc:description />
        <dc:subject>
          <rdf:Bag>
            <rdf:li>white</rdf:li>
            <rdf:li>card</rdf:li>
          </rdf:Bag>
        </dc:subject>
        <dc:publisher>
          <cc:Agent>
            <dc:title />
          </cc:Agent>
        </dc:publisher>
        <dc:creator>
          <cc:Agent>
            <dc:title>Nicu Buculei</dc:title>
          </cc:Agent>
        </dc:creator>
        <dc:rights>
          <cc:Agent>
            <dc:title>Nicu Buculei</dc:title>
          </cc:Agent>
        </dc:rights>
        <dc:date />
        <dc:format>image/svg+xml</dc:format>
        <dc:type
           rdf:resource="http://purl.org/dc/dcmitype/StillImage" />
        <cc:license
           rdf:resource="http://web.resource.org/cc/PublicDomain" />
        <dc:language>en</dc:language>
      </cc:Work>
      <cc:License
         rdf:about="http://web.resource.org/cc/PublicDomain">
        <cc:permits
           rdf:resource="http://web.resource.org/cc/Reproduction" />
        <cc:permits
           rdf:resource="http://web.resource.org/cc/Distribution" />
        <cc:permits
           rdf:resource="http://web.resource.org/cc/DerivativeWorks" />
      </cc:License>
    </rdf:RDF>
  </metadata>
  <path
     inkscape:connector-curvature="0"
     id="text1386-0"
     style="font-style:normal;font-variant:normal;font-weight:bold;font-stretch:normal;font-size:15.59969807px;font-family:'Bitstream Vera Sans';writing-mode:lr-tb;text-anchor:middle;fill:#000000;fill-opacity:1;stroke:none;stroke-width:1.10678935px;stroke-linecap:butt;stroke-linejoin:miter;stroke-opacity:1"
     d="m 127.2843,100.32117 v -4.651771 h 3.32348 v 12.292191 h -5.07587 c -1.6977,-1e-5 -2.94077,-0.27171 -3.72921,-0.81509 -0.79417,-0.5434 -1.19126,-1.4024 -1.19127,-2.57699 1e-5,-0.81236 0.20719,-1.47925 0.62153,-2.00067 0.40862,-0.52145 1.02727,-0.90566 1.85598,-1.15266 -0.45464,-0.0988 -0.86036,-0.32384 -1.21718,-0.67512 -0.36255,-0.3458 -0.72799,-0.872721 -1.09632,-1.580781 l -1.80417,-3.49088 h 3.53929 l 1.57111,3.05452 c 0.31653,0.61475 0.6388,1.03464 0.96683,1.25969 0.32228,0.225031 0.7539,0.337551 1.29486,0.337561 h 0.94094 m -1.39846,2.19003 c -0.69634,0 -1.19414,0.12349 -1.49341,0.3705 -0.305,0.24699 -0.45751,0.65316 -0.45752,1.21851 1e-5,0.55985 0.15252,0.96053 0.45752,1.20205 0.29927,0.2415 0.79707,0.36225 1.49341,0.36226 h 1.39846 v -3.15332 h -1.39846 m 3.96229,22.31201 h -8.9691 v -2.39586 h 5.64561 v -2.28883 h -5.30894 v -2.39587 h 5.30894 v -2.81576 h -5.83552 v -2.39586 h 9.15901 v 12.29218 m 0.81145,16.86162 h -3.32349 v -4.4871 l -4.791,4.4871 h -3.85869 l 6.20671,-5.82088 -6.84551,-6.47131 h 4.16083 l 5.12766,4.84113 v -4.84113 h 3.32349 v 12.29219 m -5.23126,17.08392 c -2.07177,-1e-5 -3.69466,-0.56536 -4.86869,-1.69604 -1.17399,-1.13071 -1.761,-2.69227 -1.76101,-4.6847 1e-5,-1.98695 0.58702,-3.54577 1.76101,-4.67647 1.17403,-1.13069 2.79692,-1.69604 4.86869,-1.69604 2.06604,0 3.68893,0.56535 4.86869,1.69604 1.17402,1.13069 1.76102,2.68952 1.76102,4.67647 0,1.99243 -0.587,3.55399 -1.76102,4.6847 -1.17976,1.13068 -2.80265,1.69603 -4.86869,1.69604 m 0,-2.29707 c 1.01288,-1e-5 1.79843,-0.35678 2.35666,-1.07032 0.55823,-0.71355 0.83735,-1.718 0.83734,-3.01335 1e-5,-1.28988 -0.27911,-2.29158 -0.83734,-3.00512 -0.55823,-0.71355 -1.34378,-1.07032 -2.35666,-1.07032 -1.01861,0 -1.80704,0.35677 -2.36528,1.07032 -0.55822,0.71354 -0.83734,1.71524 -0.83735,3.00512 1e-5,1.29535 0.27913,2.2998 0.83735,3.01335 0.55824,0.71354 1.34667,1.07031 2.36528,1.07032 m -0.34257,20.93639 h -3.32349 V 166.3097 c 1e-5,-1.53138 0.43739,-2.67579 1.31213,-3.43325 0.869,-0.75745 2.18689,-1.13618 3.95366,-1.13618 l 3.03865,0.23653 -0.77641,2.32659 -2.10686,-0.16726 c -0.69059,0 -1.21142,0.18388 -1.56247,0.55163 -0.3568,0.36775 -0.53521,0.9084 -0.53521,1.62194 v 11.09837" />
</svg>
