<?xml version="1.0" encoding="UTF-8" standalone="no"?>
<!-- Created with Inkscape (http://www.inkscape.org/) -->

<svg
   xmlns:dc="http://purl.org/dc/elements/1.1/"
   xmlns:cc="http://creativecommons.org/ns#"
   xmlns:rdf="http://www.w3.org/1999/02/22-rdf-syntax-ns#"
   xmlns:svg="http://www.w3.org/2000/svg"
   xmlns="http://www.w3.org/2000/svg"
   xmlns:xlink="http://www.w3.org/1999/xlink"
   xmlns:sodipodi="http://sodipodi.sourceforge.net/DTD/sodipodi-0.dtd"
   xmlns:inkscape="http://www.inkscape.org/namespaces/inkscape"
   sodipodi:docname="joker_red.svg"
   inkscape:version="0.92.4 (5da689c313, 2019-01-14)"
   sodipodi:version="0.32"
   version="1.0"
   x="0.0000000"
   y="0.0000000"
   preserveAspectRatio="xMinYMin meet"
   viewBox="0 0 140 190"
   height="190.00000"
   id="svg2">
  <sodipodi:namedview
     inkscape:current-layer="svg2"
     inkscape:window-y="26"
     inkscape:window-x="0"
     inkscape:cy="95"
     inkscape:cx="77.860915"
     inkscape:zoom="2.9894737"
     inkscape:window-height="791"
     inkscape:window-width="1152"
     inkscape:pageshadow="2"
     inkscape:pageopacity="0.0"
     borderopacity="1.0"
     bordercolor="#666666"
     pagecolor="#ffffff"
     id="base"
     showgrid="false"
     inkscape:window-maximized="0" />
  <defs
     id="defs3">
    <linearGradient
       id="linearGradient2060">
      <stop
         style="stop-color:#ebf0d0;stop-opacity:1.0000000;"
         offset="0.0000000"
         id="stop2062" />
      <stop
         style="stop-color:#ffffeb;stop-opacity:1.0000000;"
         offset="1.0000000"
         id="stop2064" />
    </linearGradient>
    <linearGradient
       x1="2.0000000"
       y1="63.099518"
       x2="109.00000"
       y2="128.69501"
       id="linearGradient4853"
       xlink:href="#linearGradient2060"
       gradientUnits="userSpaceOnUse"
       gradientTransform="translate(0.000000,-1.000000)" />
    <linearGradient
       id="linearGradient6214">
      <stop
         style="stop-color:#c10000;stop-opacity:1.0000000;"
         offset="0.0000000"
         id="stop6216" />
      <stop
         style="stop-color:#ff433e;stop-opacity:1.0000000;"
         offset="1.0000000"
         id="stop6218" />
    </linearGradient>
    <linearGradient
       id="linearGradient5417">
      <stop
         id="stop5419"
         offset="0.0000000"
         style="stop-color:#f0a700;stop-opacity:1.0000000;" />
      <stop
         id="stop5421"
         offset="1.0000000"
         style="stop-color:#ffed00;stop-opacity:1.0000000;" />
    </linearGradient>
    <linearGradient
       id="linearGradient5407">
      <stop
         style="stop-color:#f0eb00;stop-opacity:1.0000000;"
         offset="0.0000000"
         id="stop5409" />
      <stop
         style="stop-color:#ffff00;stop-opacity:1.0000000;"
         offset="1.0000000"
         id="stop5411" />
    </linearGradient>
    <linearGradient
       id="linearGradient3865">
      <stop
         style="stop-color:#0083cc;stop-opacity:1;"
         offset="0"
         id="stop3867" />
      <stop
         style="stop-color:#24a4cc;stop-opacity:1.0000000;"
         offset="1.0000000"
         id="stop3869" />
    </linearGradient>
    <linearGradient
       id="linearGradient3857">
      <stop
         style="stop-color:#ffd8c1;stop-opacity:1.0000000;"
         offset="0.0000000"
         id="stop3859" />
      <stop
         style="stop-color:#ffeded;stop-opacity:1.0000000;"
         offset="1.0000000"
         id="stop3861" />
    </linearGradient>
    <linearGradient
       inkscape:collect="always"
       id="linearGradient2580">
      <stop
         style="stop-color:#ffffff;stop-opacity:1;"
         offset="0"
         id="stop2582" />
      <stop
         style="stop-color:#ffffff;stop-opacity:0;"
         offset="1"
         id="stop2584" />
    </linearGradient>
    <linearGradient
       id="linearGradient3196">
      <stop
         style="stop-color:#008200;stop-opacity:1.0000000;"
         offset="0.0000000"
         id="stop3198" />
      <stop
         style="stop-color:#00d000;stop-opacity:1.0000000;"
         offset="1.0000000"
         id="stop3200" />
    </linearGradient>
    <linearGradient
       id="linearGradient4408">
      <stop
         style="stop-color:#ff44ab;stop-opacity:1.0000000;"
         offset="0.0000000"
         id="stop4410" />
      <stop
         style="stop-color:#ff66cc;stop-opacity:1.0000000;"
         offset="1.0000000"
         id="stop4412" />
    </linearGradient>
    <linearGradient
       y2="415.53949"
       x2="449.32318"
       y1="540.53918"
       x1="298.98572"
       gradientTransform="matrix(0.144857,0.000000,0.000000,0.144857,167.4456,227.3766)"
       gradientUnits="userSpaceOnUse"
       id="linearGradient5712"
       xlink:href="#linearGradient3196"
       inkscape:collect="always" />
    <linearGradient
       y2="122.95744"
       x2="175.18570"
       y1="124.59262"
       x1="169.79402"
       gradientTransform="translate(42.51645,174.5465)"
       gradientUnits="userSpaceOnUse"
       id="linearGradient5714"
       xlink:href="#linearGradient3865"
       inkscape:collect="always" />
    <linearGradient
       y2="123.97391"
       x2="173.85988"
       y1="124.37165"
       x1="171.07565"
       gradientTransform="translate(42.51645,174.5465)"
       gradientUnits="userSpaceOnUse"
       id="linearGradient5716"
       xlink:href="#linearGradient5407"
       inkscape:collect="always" />
    <linearGradient
       y2="111.38054"
       x2="196.72330"
       y1="111.38054"
       x1="154.61981"
       gradientTransform="translate(42.20736,173.3211)"
       gradientUnits="userSpaceOnUse"
       id="linearGradient5718"
       xlink:href="#linearGradient3865"
       inkscape:collect="always" />
    <linearGradient
       y2="256.17966"
       x2="484.79608"
       y1="437.49887"
       x1="356.44232"
       gradientTransform="matrix(0.186825,0.000000,0.000000,0.144857,144.5143,214.0766)"
       gradientUnits="userSpaceOnUse"
       id="linearGradient5720"
       xlink:href="#linearGradient3857"
       inkscape:collect="always" />
    <linearGradient
       y2="310.92441"
       x2="319.80237"
       y1="336.44974"
       x1="298.10107"
       gradientTransform="matrix(0.144857,0.000000,0.000000,0.144857,167.3072,227.4099)"
       gradientUnits="userSpaceOnUse"
       id="linearGradient5722"
       xlink:href="#linearGradient6214"
       inkscape:collect="always" />
    <linearGradient
       y2="65.100365"
       x2="185.69273"
       y1="73.100365"
       x1="165.46875"
       gradientTransform="translate(42.20736,173.3211)"
       gradientUnits="userSpaceOnUse"
       id="linearGradient5724"
       xlink:href="#linearGradient3196"
       inkscape:collect="always" />
    <linearGradient
       y2="66.479034"
       x2="154.42813"
       y1="68.058495"
       x1="152.34610"
       gradientTransform="translate(51.82771,164.0597)"
       gradientUnits="userSpaceOnUse"
       id="linearGradient5726"
       xlink:href="#linearGradient5407"
       inkscape:collect="always" />
    <linearGradient
       y2="66.479034"
       x2="154.42813"
       y1="68.058495"
       x1="152.34610"
       gradientTransform="translate(42.20736,173.3211)"
       gradientUnits="userSpaceOnUse"
       id="linearGradient5728"
       xlink:href="#linearGradient5407"
       inkscape:collect="always" />
    <linearGradient
       y2="66.479034"
       x2="154.42813"
       y1="68.058495"
       x1="152.34610"
       gradientTransform="translate(87.22198,169.4442)"
       gradientUnits="userSpaceOnUse"
       id="linearGradient5730"
       xlink:href="#linearGradient5407"
       inkscape:collect="always" />
    <linearGradient
       y2="76.889107"
       x2="182.72025"
       y1="79.186508"
       x1="168.50224"
       gradientTransform="translate(42.20736,173.3211)"
       gradientUnits="userSpaceOnUse"
       id="linearGradient5732"
       xlink:href="#linearGradient5407"
       inkscape:collect="always" />
    <linearGradient
       y2="167.52060"
       x2="384.93365"
       y1="-108.12561"
       x1="625.70294"
       gradientTransform="matrix(0.144857,0.000000,0.000000,0.144857,167.4507,227.3775)"
       gradientUnits="userSpaceOnUse"
       id="linearGradient5734"
       xlink:href="#linearGradient2580"
       inkscape:collect="always" />
  </defs>
  <g
     id="layer1"
     inkscape:groupmode="layer"
     inkscape:label="Layer 1">
    <g
       id="g5630">
      <path
         id="rect1306"
         d="M 18.000000,1.9999995 L 121.00000,1.9999995 C 129.86400,1.9999995 137.00000,9.1359995 137.00000,18.000000 L 137.00000,171.00000 C 137.00000,179.86400 129.86400,187.00000 121.00000,187.00000 L 18.000000,187.00000 C 9.1360000,187.00000 2.0000000,179.86400 2.0000000,171.00000 L 2.0000000,18.000000 C 2.0000000,9.1359995 9.1360000,1.9999995 18.000000,1.9999995 z "
         style="fill:#ffffff;fill-opacity:1.0000000;stroke:black;stroke-width:0.70000000;stroke-miterlimit:4.0000000;stroke-dashoffset:0.0000000;stroke-opacity:1.0000000" />
    </g>
    <g
       inkscape:label="Layer 1"
       inkscape:groupmode="layer"
       id="g5495"
       transform="translate(-448.5000,-231.5000)" />
  </g>
  <g
     transform="matrix(0.286429,0.000000,0.000000,0.388772,-29.61360,-4.469200)"
     style="fill:#ff0000;fill-opacity:1.0000000"
     id="g1390" />
  <g
     transform="matrix(-0.286429,0.000000,0.000000,-0.388772,168.4791,193.4692)"
     style="fill:#ff0000;fill-opacity:1.0000000"
     id="g1406" />
  <g
     transform="matrix(0.999895,0.000000,0.000000,1.000000,-149.0774,-176.9670)"
     id="g2715">
    <path
       sodipodi:nodetypes="cccccccccccccccccccccccc"
       id="path1619"
       d="M 212.11361,221.60238 C 207.23337,222.09293 205.43061,227.49897 201.70736,229.22738 C 201.85279,231.90420 196.39629,233.49526 195.26986,236.60238 C 188.72736,236.88928 191.88144,247.12276 197.30111,243.60238 C 198.87275,238.50401 205.11727,237.95264 202.45736,244.78988 C 199.63233,255.17425 198.03831,267.71344 205.40944,277.00675 C 202.07134,276.82849 185.79294,275.92847 193.90045,279.61579 C 198.31941,282.30535 212.26828,281.13525 202.76001,286.26917 C 198.94426,288.92535 188.40574,298.60665 198.17611,294.57113 C 197.74447,300.26942 198.10773,306.90989 197.98861,312.94613 C 208.81395,317.75918 220.55806,317.29009 231.92611,316.38363 C 234.75299,314.20607 244.21729,315.63575 242.61361,309.53988 C 242.32987,303.15654 243.59251,295.08749 241.01986,289.78988 C 252.32801,291.29488 241.66609,286.20652 236.54830,283.68206 C 228.88332,281.01556 241.94348,276.92681 243.79824,272.67608 C 249.14189,267.03259 231.15714,276.69746 234.21847,271.98866 C 238.80625,263.42011 234.47853,254.03080 234.90778,245.10238 C 235.27122,242.56730 230.99675,230.97759 237.11902,235.71093 C 235.73869,242.28922 246.91428,240.04947 243.39486,234.60238 C 237.81666,234.69996 235.37684,224.88035 228.76986,225.88363 C 223.94405,228.75436 223.04773,233.10943 220.86361,225.57113 C 218.78829,222.92685 215.55704,221.04850 212.11361,221.60238 z M 212.01986,230.50863 C 217.91547,238.12594 203.36099,228.29557 212.01986,230.50863 z "
       style="fill:#000000;fill-opacity:1.0000000;stroke:none;stroke-width:2.0000000;stroke-miterlimit:4.0000000;stroke-dashoffset:0.0000000;stroke-opacity:1.0000000" />
    <path
       style="fill:url(#linearGradient5712);fill-opacity:1.0000000;stroke:none;stroke-width:2.0000000;stroke-miterlimit:4.0000000;stroke-dashoffset:0.0000000;stroke-opacity:1.0000000"
       d="M 212.71347,283.89810 C 205.66441,283.89810 199.98865,289.57386 199.98865,296.62291 L 199.98865,311.55227 C 209.36854,316.20140 229.51483,316.44609 240.60756,311.55227 L 240.60756,296.62291 C 240.60756,289.57386 234.93180,283.89810 227.88274,283.89810 L 212.71347,283.89810 z "
       id="path1623"
       sodipodi:nodetypes="ccccccc" />
    <path
       style="fill:url(#linearGradient5714);fill-opacity:1.0000000;fill-rule:evenodd;stroke:none;stroke-width:1.0000000px;stroke-linecap:butt;stroke-linejoin:miter;stroke-opacity:1.0000000"
       d="M 215.96281,283.85279 L 209.57914,293.67553 L 214.15892,301.22213 L 208.37339,310.28802 L 210.64952,314.48395 C 213.19544,314.88262 215.60879,315.06032 218.02213,315.01705 L 220.83276,310.82391 L 215.48084,301.17655 L 220.29687,292.73773 L 215.96281,283.85279 z "
       id="path1625"
       sodipodi:nodetypes="cccccccccc" />
    <path
       sodipodi:nodetypes="cccccccccc"
       id="path1627"
       d="M 215.96281,283.85279 L 212.71693,294.11747 L 214.55667,301.31052 L 210.62729,310.37641 L 212.32890,314.66073 C 213.90255,314.88262 215.29943,314.92774 216.12178,314.92866 L 217.82756,310.91230 L 214.90632,301.26494 L 216.89392,293.75420 L 215.96281,283.85279 z "
       style="fill:url(#linearGradient5716);fill-opacity:1.0000000;fill-rule:evenodd;stroke:none;stroke-width:1.0000000px;stroke-linecap:butt;stroke-linejoin:miter;stroke-opacity:1.0000000" />
    <path
       style="fill:url(#linearGradient5718);fill-opacity:1.0000000;fill-rule:evenodd;stroke:none;stroke-width:1.0000000px;stroke-linecap:butt;stroke-linejoin:miter;stroke-opacity:1.0000000"
       d="M 208.84662,278.75789 L 195.88724,278.49609 L 209.23933,282.55408 L 197.32717,292.76449 L 216.17717,283.99400 L 230.44558,298.26241 C 230.44558,298.26241 222.32961,285.04123 223.11502,285.82665 C 223.90044,286.61206 241.17961,287.79019 241.17961,287.79019 L 230.70738,282.29227 C 230.70738,282.29227 241.17961,272.99817 240.65600,273.52178 C 240.13239,274.04539 221.67509,279.41241 221.67509,279.41241 L 208.84662,278.75789 z "
       id="path1629"
       sodipodi:nodetypes="cccccccccccc" />
    <path
       style="fill:url(#linearGradient5720);fill-opacity:1.0000000;stroke:none;stroke-width:2.0000000;stroke-miterlimit:4.0000000;stroke-dashoffset:0.0000000;stroke-opacity:1.0000000"
       d="M 235.08626,261.42415 C 235.08626,272.83748 227.52239,282.10048 218.20262,282.10048 C 208.88286,282.10048 201.31899,272.83748 201.31899,261.42415 C 201.31899,250.01082 208.88286,240.74782 218.20262,240.74782 C 227.52239,240.74782 235.08626,250.01082 235.08626,261.42415 z "
       id="path1631" />
    <g
       id="g1633"
       transform="matrix(0.144857,0.000000,0.000000,9.790296e-2,167.1088,238.1400)">
      <path
         transform="translate(-4.000000,-6.000000)"
         style="fill:#ffffff;fill-opacity:1.0000000;stroke:none;stroke-width:2.0000000;stroke-miterlimit:4.0000000;stroke-dashoffset:0.0000000;stroke-opacity:1.0000000"
         d="M 353.00000,245.86218 C 353.00000,257.73018 343.59200,267.36218 332.00000,267.36218 C 320.40800,267.36218 311.00000,257.73018 311.00000,245.86218 C 311.00000,233.99418 320.40800,224.36218 332.00000,224.36218 C 343.59200,224.36218 353.00000,233.99418 353.00000,245.86218 z "
         id="path1635" />
      <path
         transform="matrix(0.571429,0.000000,0.000000,0.837210,129.2857,34.52408)"
         style="fill:#04cd04;fill-opacity:1.0000000;stroke:none;stroke-width:2.0000000;stroke-miterlimit:4.0000000;stroke-dashoffset:0.0000000;stroke-opacity:1.0000000"
         d="M 353.00000,245.86218 C 353.00000,257.73018 343.59200,267.36218 332.00000,267.36218 C 320.40800,267.36218 311.00000,257.73018 311.00000,245.86218 C 311.00000,233.99418 320.40800,224.36218 332.00000,224.36218 C 343.59200,224.36218 353.00000,233.99418 353.00000,245.86218 z "
         id="path1637" />
      <path
         transform="matrix(0.357143,0.000000,0.000000,0.674419,195.9286,76.04816)"
         style="fill:#000000;fill-opacity:1.0000000;stroke:none;stroke-width:2.0000000;stroke-miterlimit:4.0000000;stroke-dashoffset:0.0000000;stroke-opacity:1.0000000"
         d="M 353.00000,245.86218 C 353.00000,257.73018 343.59200,267.36218 332.00000,267.36218 C 320.40800,267.36218 311.00000,257.73018 311.00000,245.86218 C 311.00000,233.99418 320.40800,224.36218 332.00000,224.36218 C 343.59200,224.36218 353.00000,233.99418 353.00000,245.86218 z "
         id="path1639" />
    </g>
    <g
       id="g1641"
       transform="matrix(0.144857,0.000000,0.000000,9.790296e-2,157.0203,237.7991)">
      <path
         transform="translate(-4.000000,-6.000000)"
         style="fill:#ffffff;fill-opacity:1.0000000;stroke:none;stroke-width:2.0000000;stroke-miterlimit:4.0000000;stroke-dashoffset:0.0000000;stroke-opacity:1.0000000"
         d="M 353.00000,245.86218 C 353.00000,257.73018 343.59200,267.36218 332.00000,267.36218 C 320.40800,267.36218 311.00000,257.73018 311.00000,245.86218 C 311.00000,233.99418 320.40800,224.36218 332.00000,224.36218 C 343.59200,224.36218 353.00000,233.99418 353.00000,245.86218 z "
         id="path1643" />
      <path
         transform="matrix(0.571429,0.000000,0.000000,0.837210,129.2857,34.52408)"
         style="fill:#04cd04;fill-opacity:1.0000000;stroke:none;stroke-width:2.0000000;stroke-miterlimit:4.0000000;stroke-dashoffset:0.0000000;stroke-opacity:1.0000000"
         d="M 353.00000,245.86218 C 353.00000,257.73018 343.59200,267.36218 332.00000,267.36218 C 320.40800,267.36218 311.00000,257.73018 311.00000,245.86218 C 311.00000,233.99418 320.40800,224.36218 332.00000,224.36218 C 343.59200,224.36218 353.00000,233.99418 353.00000,245.86218 z "
         id="path1645" />
      <path
         transform="matrix(0.357143,0.000000,0.000000,0.674419,195.9286,76.04816)"
         style="fill:#000000;fill-opacity:1.0000000;stroke:none;stroke-width:2.0000000;stroke-miterlimit:4.0000000;stroke-dashoffset:0.0000000;stroke-opacity:1.0000000"
         d="M 353.00000,245.86218 C 353.00000,257.73018 343.59200,267.36218 332.00000,267.36218 C 320.40800,267.36218 311.00000,257.73018 311.00000,245.86218 C 311.00000,233.99418 320.40800,224.36218 332.00000,224.36218 C 343.59200,224.36218 353.00000,233.99418 353.00000,245.86218 z "
         id="path1647" />
    </g>
    <path
       style="fill:url(#linearGradient5722);fill-opacity:1.0000000;fill-rule:evenodd;stroke:none;stroke-width:1.0000000px;stroke-linecap:butt;stroke-linejoin:miter;stroke-opacity:1.0000000"
       d="M 206.44903,272.26805 C 207.69403,278.34656 213.85278,276.61410 218.27838,271.65886 C 213.42132,271.76857 210.10371,272.10335 206.44903,272.26805 z "
       id="path1651"
       sodipodi:nodetypes="ccc" />
    <path
       style="fill:#005a00;fill-opacity:1.0000000;stroke:none;stroke-width:2.0000000;stroke-miterlimit:4.0000000;stroke-dashoffset:0.0000000;stroke-opacity:1.0000000"
       d="M 226.94498,299.91118 L 228.20857,300.03444 L 229.57993,314.54720 L 226.11474,314.79760 L 226.94498,299.91118 z "
       id="path1653"
       sodipodi:nodetypes="ccccc" />
    <path
       sodipodi:nodetypes="ccccccc"
       id="path1655"
       d="M 208.77052,263.27002 C 207.97862,264.55685 204.43964,265.45406 204.60390,266.42650 C 204.76817,267.39894 208.18537,268.15352 208.97533,268.71413 L 209.30618,268.23624 C 208.61149,267.74323 205.79722,267.26367 205.66216,266.46412 C 205.52711,265.66456 208.83076,264.61534 209.57139,263.41180 L 208.77052,263.27002 z "
       style="fill:#000000;fill-opacity:1.0000000;fill-rule:evenodd;stroke:none;stroke-width:1.0000000px;stroke-linecap:butt;stroke-linejoin:miter;stroke-opacity:1.0000000" />
    <path
       sodipodi:nodetypes="ccccccccccccc"
       id="path1657"
       d="M 212.64486,223.53985 C 209.76035,223.85156 206.98329,226.15242 205.39486,230.35235 C 217.38440,221.95249 215.14486,239.03985 215.14486,239.03985 C 214.99351,238.96747 214.64890,238.97585 214.61361,238.85235 C 214.23468,237.52610 203.10964,223.06894 195.67611,240.16485 C 205.70740,232.53306 205.73212,239.83098 204.42611,245.22735 C 203.86232,248.47952 202.83236,252.47735 202.83236,252.47735 C 213.24995,250.26632 223.24724,251.42864 233.58236,253.25860 C 233.58236,253.25860 233.62804,249.12263 233.44809,247.97271 C 234.20595,241.53092 226.26456,229.30040 239.90010,235.58471 C 225.23826,215.59682 223.14682,239.79771 222.95736,239.03985 C 222.95519,239.03116 222.89901,239.04785 222.89486,239.03985 C 222.45180,227.99750 217.40738,223.02519 212.64486,223.53985 z "
       style="fill:url(#linearGradient5724);fill-opacity:1.0000000;fill-rule:evenodd;stroke:none;stroke-width:1.0000000px;stroke-linecap:butt;stroke-linejoin:miter;stroke-opacity:1.0000000" />
    <path
       id="path1659"
       d="M 206.68660,231.25669 C 206.68660,232.22762 205.86643,233.01563 204.85586,233.01563 C 203.84530,233.01563 203.02512,232.22762 203.02512,231.25669 C 203.02512,230.28575 203.84530,229.49774 204.85586,229.49774 C 205.86643,229.49774 206.68660,230.28575 206.68660,231.25669 z "
       style="fill:url(#linearGradient5726);fill-opacity:1.0000000;stroke:none;stroke-width:2.0000000;stroke-miterlimit:4.0000000;stroke-dashoffset:0.0000000;stroke-opacity:1.0000000" />
    <path
       style="fill:#ffffff;fill-opacity:1.0000000;fill-rule:evenodd;stroke:none;stroke-width:1.0000000px;stroke-linecap:butt;stroke-linejoin:miter;stroke-opacity:1.0000000"
       d="M 207.52565,272.64303 C 208.77065,277.35086 213.10183,274.85692 216.66442,272.18614 C 211.80736,272.29585 211.18033,272.47833 207.52565,272.64303 z "
       id="path1661"
       sodipodi:nodetypes="ccc" />
    <path
       style="fill:url(#linearGradient5728);fill-opacity:1.0000000;stroke:none;stroke-width:2.0000000;stroke-miterlimit:4.0000000;stroke-dashoffset:0.0000000;stroke-opacity:1.0000000"
       d="M 197.06625,240.51807 C 197.06625,241.48901 196.24608,242.27701 195.23551,242.27701 C 194.22495,242.27701 193.40477,241.48901 193.40477,240.51807 C 193.40477,239.54713 194.22495,238.75912 195.23551,238.75912 C 196.24608,238.75912 197.06625,239.54713 197.06625,240.51807 z "
       id="path1663" />
    <path
       style="fill:url(#linearGradient5730);fill-opacity:1.0000000;stroke:none;stroke-width:2.0000000;stroke-miterlimit:4.0000000;stroke-dashoffset:0.0000000;stroke-opacity:1.0000000"
       d="M 242.08087,236.64121 C 242.08087,237.61215 241.26070,238.40016 240.25013,238.40016 C 239.23957,238.40016 238.41939,237.61215 238.41939,236.64121 C 238.41939,235.67028 239.23957,234.88227 240.25013,234.88227 C 241.26070,234.88227 242.08087,235.67028 242.08087,236.64121 z "
       id="path1665" />
    <path
       sodipodi:nodetypes="ccccc"
       id="path1667"
       d="M 229.80184,265.76535 C 235.61768,267.02398 235.02863,256.89857 229.54966,260.55807 L 230.01114,260.63741 C 233.85417,258.45099 234.85214,265.92959 228.95360,265.86040 L 229.80184,265.76535 z "
       style="fill:#000000;fill-opacity:1.0000000;fill-rule:evenodd;stroke:none;stroke-width:1.0000000px;stroke-linecap:butt;stroke-linejoin:miter;stroke-opacity:1.0000000" />
    <path
       style="fill:#000000;fill-opacity:1.0000000;fill-rule:evenodd;stroke:none;stroke-width:1.0000000px;stroke-linecap:butt;stroke-linejoin:miter;stroke-opacity:1.0000000"
       d="M 230.24281,264.72276 C 233.56119,265.44090 233.22509,259.66359 230.09892,261.75161 L 230.26750,261.74952 C 232.46024,260.50200 233.12439,264.81647 229.75883,264.77699 L 230.24281,264.72276 z "
       id="path1669"
       sodipodi:nodetypes="ccccc" />
    <path
       style="fill:url(#linearGradient5732);fill-opacity:1.0000000;fill-rule:evenodd;stroke:none;stroke-width:1.0000000px;stroke-linecap:butt;stroke-linejoin:miter;stroke-opacity:1.0000000"
       d="M 202.73796,252.97427 L 203.38410,250.46149 C 213.74631,249.38458 224.53929,249.52817 233.39384,251.32301 C 233.68102,251.96915 233.68101,253.40503 233.68101,253.40503 C 223.51025,251.75377 213.26769,251.68198 202.73796,252.97427 z "
       id="path1671"
       sodipodi:nodetypes="ccccc" />
    <path
       id="path1673"
       d="M 212.65000,223.54076 C 209.90455,223.83745 207.29979,225.99904 205.68125,229.82201 C 205.41953,229.68335 205.18856,229.50951 204.86875,229.50951 C 203.85819,229.50951 203.02500,230.28857 203.02500,231.25951 C 203.02500,231.62470 203.23270,231.91577 203.43125,232.19701 C 200.98425,232.64456 198.48090,234.58655 196.24375,239.16576 C 195.94529,238.96281 195.63695,238.75951 195.24375,238.75951 C 194.23319,238.75951 193.40001,239.53857 193.40000,240.50951 C 193.40000,241.48045 194.23319,242.29076 195.24375,242.29076 C 196.25432,242.29076 197.05625,241.48045 197.05625,240.50951 C 197.05625,240.12140 196.84062,239.83176 196.61875,239.54076 C 205.61980,233.18112 205.69092,240.02335 204.43125,245.22826 C 203.86746,248.48043 202.83750,252.47826 202.83750,252.47826 C 202.84780,252.47607 202.85845,252.48044 202.86875,252.47826 L 202.74375,252.97826 C 202.77495,252.97443 202.80630,252.98206 202.83750,252.97826 C 201.88677,255.56444 201.33750,258.39717 201.33750,261.41576 C 201.33750,268.69966 204.43579,275.07601 209.08750,278.75951 L 208.83750,278.75951 L 195.90000,278.50951 L 209.24375,282.54076 L 197.33750,292.75951 L 201.58750,290.79076 C 200.65886,292.55930 199.99375,294.49104 199.99375,296.63451 L 199.99375,311.54076 C 202.73511,312.89951 206.50168,313.76525 210.58750,314.35326 L 210.65000,314.47826 C 211.22190,314.56781 211.74623,314.53601 212.30625,314.60326 L 212.33750,314.66576 C 213.91115,314.88765 215.29640,314.91484 216.11875,314.91576 L 216.15000,314.88451 C 216.76550,314.90206 217.41167,315.02051 218.02500,315.00951 C 220.75759,315.08467 223.39921,314.87442 226.11875,314.63451 L 226.11875,314.79076 L 229.58750,314.54076 L 229.55625,314.35326 C 233.64412,313.77249 237.51453,312.91026 240.61875,311.54076 L 240.61875,296.63451 C 240.61875,293.00375 239.07361,289.76119 236.65000,287.44701 C 238.39028,287.57850 241.18125,287.79076 241.18125,287.79076 L 230.71250,282.29076 C 230.71250,282.29076 241.17361,272.98590 240.65000,273.50951 C 240.33096,273.82855 234.33430,275.65387 228.93125,277.25951 C 232.66173,273.46589 235.08750,267.81358 235.08750,261.41576 C 235.08750,258.42296 234.55420,255.60961 233.61875,253.04076 C 233.61710,252.96168 233.59404,252.79786 233.58750,252.66576 C 233.59357,251.92056 233.62223,248.99897 233.46250,247.97826 C 234.20386,241.67675 226.74790,229.92087 239.18125,235.29076 C 238.74409,235.61230 238.43125,236.06508 238.43125,236.63451 C 238.43125,237.60545 239.23319,238.41576 240.24375,238.41576 C 241.25432,238.41576 242.08751,237.60545 242.08750,236.63451 C 242.08750,235.66357 241.25432,234.88451 240.24375,234.88451 C 239.96020,234.88451 239.76466,235.05505 239.52500,235.16576 C 225.23101,216.17416 223.15019,239.79155 222.96250,239.04076 C 222.96033,239.03206 222.90415,239.04877 222.90000,239.04076 C 222.45694,227.99841 217.41252,223.02610 212.65000,223.54076 z M 211.99375,228.16576 C 216.42197,229.42789 215.15000,239.04076 215.15000,239.04076 C 214.99865,238.96837 214.65404,238.97676 214.61875,238.85326 C 214.40484,238.10457 210.74069,233.30743 206.27500,232.22826 C 206.48389,231.94249 206.68125,231.63498 206.68125,231.25951 C 206.68125,230.74948 206.44885,230.29963 206.08750,229.97826 C 208.67362,228.32094 210.64976,227.78270 211.99375,228.16576 z "
       style="fill:url(#linearGradient5734);fill-opacity:1.0000000;stroke:none;stroke-width:2.0000000;stroke-miterlimit:4.0000000;stroke-dashoffset:0.0000000;stroke-opacity:1.0000000" />
  </g>
  <metadata
     id="metadata79">
    <rdf:RDF>
      <cc:Work
         rdf:about="">
        <dc:title>card</dc:title>
        <dc:description />
        <dc:subject>
          <rdf:Bag>
            <rdf:li>white</rdf:li>
            <rdf:li>card</rdf:li>
          </rdf:Bag>
        </dc:subject>
        <dc:publisher>
          <cc:Agent>
            <dc:title />
          </cc:Agent>
        </dc:publisher>
        <dc:creator>
          <cc:Agent>
            <dc:title>Nicu Buculei</dc:title>
          </cc:Agent>
        </dc:creator>
        <dc:rights>
          <cc:Agent>
            <dc:title>Nicu Buculei</dc:title>
          </cc:Agent>
        </dc:rights>
        <dc:date />
        <dc:format>image/svg+xml</dc:format>
        <dc:type
           rdf:resource="http://purl.org/dc/dcmitype/StillImage" />
        <cc:license
           rdf:resource="http://web.resource.org/cc/PublicDomain" />
        <dc:language>en</dc:language>
      </cc:Work>
      <cc:License
         rdf:about="http://web.resource.org/cc/PublicDomain">
        <cc:permits
           rdf:resource="http://web.resource.org/cc/Reproduction" />
        <cc:permits
           rdf:resource="http://web.resource.org/cc/Distribution" />
        <cc:permits
           rdf:resource="http://web.resource.org/cc/DerivativeWorks" />
      </cc:License>
    </rdf:RDF>
  </metadata>
  <path
     inkscape:connector-curvature="0"
     id="text1386"
     style="font-style:normal;font-variant:normal;font-weight:bold;font-stretch:normal;font-size:15.59969807px;font-family:'Bitstream Vera Sans';writing-mode:lr-tb;text-anchor:middle;fill:#ff0000;fill-opacity:1;stroke:none;stroke-width:1.10678935px;stroke-linecap:butt;stroke-linejoin:miter;stroke-opacity:1"
     d="M 12.064694,84.79883 V 89.4506 H 8.741208 V 77.15841 h 5.075869 c 1.697703,1e-5 2.940772,0.27171 3.72921,0.81509 0.794172,0.5434 1.191263,1.4024 1.191276,2.577 -1.3e-5,0.81235 -0.20719,1.47924 -0.621535,2.00067 -0.408614,0.52144 -1.02727,0.90566 -1.855973,1.15265 0.454632,0.0988 0.860355,0.32384 1.217173,0.67512 0.362551,0.3458 0.727989,0.87273 1.096318,1.58078 l 1.804178,3.49088 h -3.539296 l -1.571103,-3.05452 c -0.31653,-0.61475 -0.638807,-1.03464 -0.966832,-1.25968 -0.322285,-0.22504 -0.753905,-0.33756 -1.294864,-0.33757 h -0.940935 m 1.398453,-2.19003 c 0.696343,1e-5 1.194146,-0.12349 1.493411,-0.37049 0.305004,-0.24699 0.457511,-0.65317 0.457518,-1.21852 -7e-6,-0.55985 -0.152514,-0.96053 -0.457518,-1.20205 -0.299265,-0.2415 -0.797068,-0.36225 -1.493411,-0.36226 h -1.398453 v 3.15332 h 1.398453 M 9.500863,60.296787 h 8.969093 v 2.395865 h -5.645608 v 2.288834 h 5.308944 v 2.395864 h -5.308944 v 2.81576 h 5.835522 v 2.39587 H 9.500863 V 60.296787 M 8.689414,43.435171 h 3.323485 v 4.4871 l 4.790999,-4.4871 h 3.858696 l -6.206717,5.820881 6.845516,6.471306 h -4.160831 l -5.127663,-4.841129 v 4.841129 H 8.689414 V 43.435171 m 5.231252,-17.083919 c 2.071773,1.3e-5 3.694668,0.56536 4.868691,1.696043 1.173996,1.130704 1.761002,2.692269 1.761015,4.684698 -1.3e-5,1.986954 -0.587019,3.545774 -1.761015,4.676466 -1.174023,1.130695 -2.796918,1.696041 -4.868691,1.696041 -2.066033,0 -3.688928,-0.565346 -4.86869,-1.696041 C 7.877964,36.277767 7.29096,34.718947 7.29096,32.731993 c 0,-1.992429 0.587004,-3.553994 1.761016,-4.684698 1.179762,-1.130683 2.802657,-1.69603 4.86869,-1.696043 m 0,2.297068 c -1.012878,1e-5 -1.798428,0.356781 -2.356653,1.070318 -0.558235,0.713553 -0.83735,1.718004 -0.837346,3.013355 -4e-6,1.289875 0.279111,2.291582 0.837346,3.005123 0.558225,0.713548 1.343775,1.07032 2.356653,1.070318 1.018618,2e-6 1.807046,-0.35677 2.365286,-1.070318 0.558221,-0.713541 0.837335,-1.715248 0.837346,-3.005123 -1.1e-5,-1.295351 -0.279125,-2.299802 -0.837346,-3.013355 -0.55824,-0.713537 -1.346668,-1.070308 -2.365286,-1.070318 M 14.26324,7.711929 h 3.323485 v 11.098372 c -4e-6,1.531377 -0.437381,2.675793 -1.312129,3.43325 -0.869001,0.757453 -2.186884,1.13618 -3.953653,1.136184 l -3.038652,-0.236532 0.776414,-2.326587 2.106855,0.167254 c 0.690594,-2e-6 1.211417,-0.183877 1.562469,-0.551626 0.356805,-0.367751 0.535209,-0.908398 0.535211,-1.621943 V 7.711929" />
  <path
     inkscape:connector-curvature="0"
     id="text1386-0"
     style="font-style:normal;font-variant:normal;font-weight:bold;font-stretch:normal;font-size:15.59969807px;font-family:'Bitstream Vera Sans';writing-mode:lr-tb;text-anchor:middle;fill:#ff0000;fill-opacity:1;stroke:none;stroke-width:1.10678935px;stroke-linecap:butt;stroke-linejoin:miter;stroke-opacity:1"
     d="m 125.43531,98.0392 v -4.65177 h 3.32348 v 12.29219 h -5.07587 c -1.6977,-1e-5 -2.94077,-0.27171 -3.72921,-0.81509 -0.79417,-0.5434 -1.19126,-1.4024 -1.19127,-2.57699 1e-5,-0.81236 0.20719,-1.47925 0.62153,-2.00067 0.40862,-0.52145 1.02727,-0.90566 1.85598,-1.15266 -0.45464,-0.0988 -0.86036,-0.32384 -1.21718,-0.67512 -0.36255,-0.3458 -0.72799,-0.87272 -1.09632,-1.58078 l -1.80417,-3.49088 h 3.53929 l 1.57111,3.05452 c 0.31653,0.61475 0.6388,1.03464 0.96683,1.25969 0.32228,0.22503 0.7539,0.33755 1.29486,0.33756 h 0.94094 m -1.39846,2.19003 c -0.69634,0 -1.19414,0.12349 -1.49341,0.3705 -0.305,0.24699 -0.45751,0.65316 -0.45752,1.21851 1e-5,0.55985 0.15252,0.96053 0.45752,1.20205 0.29927,0.2415 0.79707,0.36225 1.49341,0.36226 h 1.39846 v -3.15332 h -1.39846 m 3.96229,22.31201 h -8.9691 v -2.39586 h 5.64561 v -2.28883 h -5.30894 v -2.39587 h 5.30894 v -2.81576 h -5.83552 v -2.39586 h 9.15901 v 12.29218 m 0.81145,16.86162 h -3.32349 v -4.4871 l -4.791,4.4871 h -3.85869 l 6.20671,-5.82088 -6.84551,-6.47131 h 4.16083 l 5.12766,4.84113 v -4.84113 h 3.32349 v 12.29219 m -5.23126,17.08392 c -2.07177,-1e-5 -3.69466,-0.56536 -4.86869,-1.69604 -1.17399,-1.13071 -1.761,-2.69227 -1.76101,-4.6847 1e-5,-1.98695 0.58702,-3.54577 1.76101,-4.67647 1.17403,-1.13069 2.79692,-1.69604 4.86869,-1.69604 2.06604,0 3.68893,0.56535 4.86869,1.69604 1.17402,1.13069 1.76102,2.68952 1.76102,4.67647 0,1.99243 -0.587,3.55399 -1.76102,4.6847 -1.17976,1.13068 -2.80265,1.69603 -4.86869,1.69604 m 0,-2.29707 c 1.01288,-1e-5 1.79843,-0.35678 2.35666,-1.07032 0.55823,-0.71355 0.83735,-1.718 0.83734,-3.01335 1e-5,-1.28988 -0.27911,-2.29158 -0.83734,-3.00512 -0.55823,-0.71355 -1.34378,-1.07032 -2.35666,-1.07032 -1.01861,0 -1.80704,0.35677 -2.36528,1.07032 -0.55822,0.71354 -0.83734,1.71524 -0.83735,3.00512 1e-5,1.29535 0.27913,2.2998 0.83735,3.01335 0.55824,0.71354 1.34667,1.07031 2.36528,1.07032 m -0.34257,20.93639 h -3.32349 v -11.09837 c 1e-5,-1.53138 0.43739,-2.67579 1.31213,-3.43325 0.869,-0.75745 2.18689,-1.13618 3.95366,-1.13618 l 3.03865,0.23653 -0.77641,2.32659 -2.10686,-0.16726 c -0.69059,0 -1.21142,0.18388 -1.56247,0.55163 -0.3568,0.36775 -0.53521,0.9084 -0.53521,1.62194 v 11.09837" />
</svg>
