<?xml version="1.0" encoding="UTF-8" standalone="no"?>
<!-- Created with Inkscape (http://www.inkscape.org/) -->

<svg
   xmlns:dc="http://purl.org/dc/elements/1.1/"
   xmlns:cc="http://creativecommons.org/ns#"
   xmlns:rdf="http://www.w3.org/1999/02/22-rdf-syntax-ns#"
   xmlns:svg="http://www.w3.org/2000/svg"
   xmlns="http://www.w3.org/2000/svg"
   xmlns:xlink="http://www.w3.org/1999/xlink"
   xmlns:sodipodi="http://sodipodi.sourceforge.net/DTD/sodipodi-0.dtd"
   xmlns:inkscape="http://www.inkscape.org/namespaces/inkscape"
   id="svg2"
   height="190.00000"
   preserveAspectRatio="xMinYMin meet"
   viewBox="0 0 140 190"
   y="0.0000000"
   x="0.0000000"
   version="1.0"
   sodipodi:version="0.32"
   inkscape:version="0.92.4 (5da689c313, 2019-01-14)"
   sodipodi:docname="s11.svg">
  <sodipodi:namedview
     id="base"
     pagecolor="#ffffff"
     bordercolor="#666666"
     borderopacity="1.0"
     inkscape:pageopacity="0.0"
     inkscape:pageshadow="2"
     inkscape:window-width="1152"
     inkscape:window-height="791"
     inkscape:zoom="2.9894737"
     inkscape:cx="77.860915"
     inkscape:cy="93.308428"
     inkscape:window-x="647"
     inkscape:window-y="199"
     inkscape:current-layer="svg2"
     showgrid="false"
     inkscape:window-maximized="0" />
  <defs
     id="defs3">
    <linearGradient
       id="linearGradient2060">
      <stop
         id="stop2062"
         offset="0.0000000"
         style="stop-color:#ebf0d0;stop-opacity:1.0000000;" />
      <stop
         id="stop2064"
         offset="1.0000000"
         style="stop-color:#ffffeb;stop-opacity:1.0000000;" />
    </linearGradient>
    <linearGradient
       gradientTransform="translate(0.000000,-1.000000)"
       gradientUnits="userSpaceOnUse"
       xlink:href="#linearGradient2060"
       id="linearGradient4853"
       y2="128.69501"
       x2="109.00000"
       y1="63.099518"
       x1="2.0000000" />
    <linearGradient
       id="linearGradient6214">
      <stop
         id="stop6216"
         offset="0.0000000"
         style="stop-color:#c10000;stop-opacity:1.0000000;" />
      <stop
         id="stop6218"
         offset="1.0000000"
         style="stop-color:#ff433e;stop-opacity:1.0000000;" />
    </linearGradient>
    <linearGradient
       id="linearGradient5417">
      <stop
         style="stop-color:#f0a700;stop-opacity:1.0000000;"
         offset="0.0000000"
         id="stop5419" />
      <stop
         style="stop-color:#ffed00;stop-opacity:1.0000000;"
         offset="1.0000000"
         id="stop5421" />
    </linearGradient>
    <linearGradient
       id="linearGradient5407">
      <stop
         id="stop5409"
         offset="0.0000000"
         style="stop-color:#f0eb00;stop-opacity:1.0000000;" />
      <stop
         id="stop5411"
         offset="1.0000000"
         style="stop-color:#ffff00;stop-opacity:1.0000000;" />
    </linearGradient>
    <linearGradient
       id="linearGradient3865">
      <stop
         id="stop3867"
         offset="0"
         style="stop-color:#0083cc;stop-opacity:1;" />
      <stop
         id="stop3869"
         offset="1.0000000"
         style="stop-color:#24a4cc;stop-opacity:1.0000000;" />
    </linearGradient>
    <linearGradient
       id="linearGradient3857">
      <stop
         id="stop3859"
         offset="0.0000000"
         style="stop-color:#ffd8c1;stop-opacity:1.0000000;" />
      <stop
         id="stop3861"
         offset="1.0000000"
         style="stop-color:#ffeded;stop-opacity:1.0000000;" />
    </linearGradient>
    <linearGradient
       id="linearGradient2580"
       inkscape:collect="always">
      <stop
         id="stop2582"
         offset="0"
         style="stop-color:#ffffff;stop-opacity:1;" />
      <stop
         id="stop2584"
         offset="1"
         style="stop-color:#ffffff;stop-opacity:0;" />
    </linearGradient>
    <linearGradient
       id="linearGradient3196">
      <stop
         id="stop3198"
         offset="0.0000000"
         style="stop-color:#008200;stop-opacity:1.0000000;" />
      <stop
         id="stop3200"
         offset="1.0000000"
         style="stop-color:#00d000;stop-opacity:1.0000000;" />
    </linearGradient>
    <linearGradient
       id="linearGradient4408">
      <stop
         id="stop4410"
         offset="0.0000000"
         style="stop-color:#ff44ab;stop-opacity:1.0000000;" />
      <stop
         id="stop4412"
         offset="1.0000000"
         style="stop-color:#ff66cc;stop-opacity:1.0000000;" />
    </linearGradient>
    <linearGradient
       inkscape:collect="always"
       xlink:href="#linearGradient3857"
       id="linearGradient28236"
       gradientUnits="userSpaceOnUse"
       gradientTransform="matrix(0.186825,0.000000,0.000000,0.144857,77.30080,1.475080)"
       x1="356.44232"
       y1="437.49887"
       x2="484.79608"
       y2="256.17966" />
    <linearGradient
       inkscape:collect="always"
       xlink:href="#linearGradient6214"
       id="linearGradient28238"
       gradientUnits="userSpaceOnUse"
       gradientTransform="matrix(0.144857,0.000000,0.000000,0.144857,102.2145,13.45522)"
       x1="298.98572"
       y1="540.53918"
       x2="449.32318"
       y2="415.53949" />
    <linearGradient
       inkscape:collect="always"
       xlink:href="#linearGradient6214"
       id="linearGradient28240"
       gradientUnits="userSpaceOnUse"
       gradientTransform="matrix(0.144857,0.000000,0.000000,0.144857,100.0937,14.80843)"
       x1="294.24606"
       y1="346.32654"
       x2="312.09238"
       y2="322.13895" />
    <linearGradient
       inkscape:collect="always"
       xlink:href="#linearGradient5407"
       id="linearGradient28242"
       gradientUnits="userSpaceOnUse"
       gradientTransform="translate(46.64643,-34.28041)"
       x1="101.39262"
       y1="124.16081"
       x2="105.54549"
       y2="120.97331" />
    <linearGradient
       inkscape:collect="always"
       xlink:href="#linearGradient3196"
       id="linearGradient28244"
       gradientUnits="userSpaceOnUse"
       gradientTransform="translate(42.50098,-33.24405)"
       x1="98.818184"
       y1="108.76363"
       x2="112.89091"
       y2="103.33409" />
    <linearGradient
       inkscape:collect="always"
       xlink:href="#linearGradient5407"
       id="linearGradient28246"
       gradientUnits="userSpaceOnUse"
       gradientTransform="translate(43.11893,-34.15541)"
       x1="103.56250"
       y1="65.108551"
       x2="111.88306"
       y2="62.671051" />
    <linearGradient
       inkscape:collect="always"
       xlink:href="#linearGradient6214"
       id="linearGradient28248"
       gradientUnits="userSpaceOnUse"
       gradientTransform="translate(46.64643,-34.28041)"
       x1="93.499947"
       y1="62.938114"
       x2="117.13919"
       y2="57.702003" />
    <linearGradient
       inkscape:collect="always"
       xlink:href="#linearGradient5407"
       id="linearGradient28250"
       gradientUnits="userSpaceOnUse"
       x1="104.75000"
       y1="57.468750"
       x2="109.50000"
       y2="55.781250" />
    <linearGradient
       inkscape:collect="always"
       xlink:href="#linearGradient2580"
       id="linearGradient28252"
       gradientUnits="userSpaceOnUse"
       gradientTransform="matrix(0.186852,0.000000,0.000000,0.144857,77.29650,1.486740)"
       x1="652.29529"
       y1="77.394516"
       x2="410.90594"
       y2="344.41714" />
  </defs>
  <g
     inkscape:label="Layer 1"
     inkscape:groupmode="layer"
     id="layer1">
    <g
       id="g5630">
      <path
         style="fill:#ffffff;fill-opacity:1.0000000;stroke:black;stroke-width:0.70000000;stroke-miterlimit:4.0000000;stroke-dashoffset:0.0000000;stroke-opacity:1.0000000"
         d="M 18.000000,1.9999995 L 121.00000,1.9999995 C 129.86400,1.9999995 137.00000,9.1359995 137.00000,18.000000 L 137.00000,171.00000 C 137.00000,179.86400 129.86400,187.00000 121.00000,187.00000 L 18.000000,187.00000 C 9.1360000,187.00000 2.0000000,179.86400 2.0000000,171.00000 L 2.0000000,18.000000 C 2.0000000,9.1359995 9.1360000,1.9999995 18.000000,1.9999995 z "
         id="rect1306" />
    </g>
    <g
       transform="translate(-448.5000,-231.5000)"
       id="g5495"
       inkscape:groupmode="layer"
       inkscape:label="Layer 1" />
  </g>
  <path
     sodipodi:nodetypes="cccccccccc"
     id="path1561"
     style="fill:#000000;fill-opacity:1.0000000;fill-rule:evenodd;stroke:none;stroke-width:0.48046079;stroke-linecap:butt;stroke-linejoin:round;stroke-miterlimit:4.0000000;stroke-opacity:1.0000000"
     d="M 20.644513,48.665000 C 15.720190,56.489663 0.60984937,69.814120 10.182209,73.927924 C 15.992739,75.821667 18.757891,71.945086 19.929042,69.378567 L 20.163623,69.378567 L 16.304766,82.325000 L 25.242300,82.286872 C 25.242300,82.286872 21.392200,69.842017 21.383444,69.365858 L 21.477274,69.365858 C 22.423222,71.463043 26.012704,75.804526 29.961255,74.151130 C 41.507111,69.516255 24.505558,56.327258 20.644513,48.665000 z " />
  <path
     sodipodi:nodetypes="cccccccccc"
     id="path19646"
     style="fill:#000000;fill-opacity:1.0000000;fill-rule:evenodd;stroke:none;stroke-width:0.48046079;stroke-linecap:butt;stroke-linejoin:round;stroke-miterlimit:4.0000000;stroke-opacity:1.0000000"
     d="M 118.03526,140.00000 C 122.95958,132.17534 138.06992,118.85088 128.49756,114.73708 C 122.68703,112.84333 119.92188,116.71991 118.75073,119.28643 L 118.51615,119.28643 L 122.37500,106.34000 L 113.43747,106.37813 C 113.43747,106.37813 117.28757,118.82298 117.29632,119.29914 L 117.20249,119.29914 C 116.25655,117.20196 112.66706,112.86047 108.71851,114.51387 C 97.172658,119.14874 114.17421,132.33774 118.03526,140.00000 z " />
  <g
     id="g3325"
     transform="matrix(0.999998,0.000000,0.000000,1.000000,-82.63717,36.75000)">
    <path
       sodipodi:nodetypes="cccccccccccccccccc"
       id="path3729"
       d="M 150.52907,17.563340 C 144.55710,21.337220 137.05962,14.398098 133.07640,22.442632 C 129.58097,27.224939 140.60613,28.616442 133.64603,32.866543 C 128.88981,37.990918 129.16922,40.246918 133.27685,40.874235 C 132.09453,46.537928 132.95646,56.045038 135.55094,61.229660 C 132.33944,65.132856 134.74652,63.792041 139.10370,64.605785 C 137.74986,66.760310 138.52723,74.655400 133.89643,77.094590 C 131.56519,84.116120 133.31296,91.736810 132.77143,99.000840 C 144.04637,103.74908 157.39647,104.28839 168.17435,101.75554 C 172.91278,100.76512 178.31968,100.38708 177.36518,93.625840 C 177.64879,85.199560 178.64781,74.107760 169.45514,69.795520 C 164.08199,69.042830 162.29080,65.407831 166.41484,60.246086 C 169.47771,51.887993 172.85464,55.384952 177.55830,53.271177 C 182.45940,51.960007 170.55690,48.731555 172.12872,43.293896 C 170.60604,39.040037 168.74503,34.036164 165.69886,30.582784 C 173.37780,29.893155 174.20081,21.885380 167.95893,20.250840 C 161.77237,16.128532 158.12181,23.164602 153.41409,17.876228 C 152.63475,17.862926 151.31191,17.372384 150.52907,17.563340 z "
       style="fill:#000000;fill-opacity:1.0000000;stroke:none;stroke-width:2.0000000;stroke-miterlimit:4.0000000;stroke-dashoffset:0.0000000;stroke-opacity:1.0000000" />
    <path
       id="path1624"
       d="M 167.87283,48.822639 C 167.87283,60.235971 160.30896,69.498970 150.98919,69.498970 C 141.66942,69.498970 134.10556,60.235971 134.10556,48.822639 C 134.10556,37.409306 141.66942,28.146311 150.98919,28.146311 C 160.30896,28.146311 167.87283,37.409306 167.87283,48.822639 z "
       style="fill:url(#linearGradient28236);fill-opacity:1.0000000;stroke:none;stroke-width:2.0000000;stroke-miterlimit:4.0000000;stroke-dashoffset:0.0000000;stroke-opacity:1.0000000" />
    <path
       sodipodi:nodetypes="ccccccc"
       id="path1628"
       d="M 147.48242,69.976740 C 140.43336,69.976740 134.75760,75.652500 134.75760,82.701550 L 134.75760,97.630910 C 144.13749,102.28004 164.28378,102.52473 175.37651,97.630910 L 175.37651,82.701550 C 175.37651,75.652500 169.70075,69.976740 162.65169,69.976740 L 147.48242,69.976740 z "
       style="fill:url(#linearGradient28238);fill-opacity:1.0000000;stroke:none;stroke-width:2.0000000;stroke-miterlimit:4.0000000;stroke-dashoffset:0.0000000;stroke-opacity:1.0000000" />
    <path
       sodipodi:nodetypes="cccccc"
       id="path1630"
       d="M 132.27519,39.191410 C 134.80240,34.662853 137.32961,26.010833 151.40252,26.100553 C 173.24261,26.740445 168.03278,49.482095 175.85310,51.936310 C 171.00022,53.513622 168.55442,54.864779 161.31239,52.366477 C 162.10406,46.667494 160.81293,42.487642 157.38726,39.551354 C 153.11837,41.790222 136.64823,40.725955 132.27519,39.191410 z "
       style="fill:#000000;fill-opacity:1.0000000;fill-rule:evenodd;stroke:none;stroke-width:1.5371202px;stroke-linecap:butt;stroke-linejoin:miter;stroke-opacity:1.0000000" />
    <g
       transform="matrix(0.144857,0.000000,0.000000,9.790296e-2,99.89529,25.53853)"
       id="g1632">
      <path
         id="path1634"
         d="M 353.00000,245.86218 C 353.00000,257.73018 343.59200,267.36218 332.00000,267.36218 C 320.40800,267.36218 311.00000,257.73018 311.00000,245.86218 C 311.00000,233.99418 320.40800,224.36218 332.00000,224.36218 C 343.59200,224.36218 353.00000,233.99418 353.00000,245.86218 z "
         style="fill:#ffffff;fill-opacity:1.0000000;stroke:none;stroke-width:2.0000000;stroke-miterlimit:4.0000000;stroke-dashoffset:0.0000000;stroke-opacity:1.0000000"
         transform="translate(-4.000000,-6.000000)" />
      <path
         id="path1636"
         d="M 353.00000,245.86218 C 353.00000,257.73018 343.59200,267.36218 332.00000,267.36218 C 320.40800,267.36218 311.00000,257.73018 311.00000,245.86218 C 311.00000,233.99418 320.40800,224.36218 332.00000,224.36218 C 343.59200,224.36218 353.00000,233.99418 353.00000,245.86218 z "
         style="fill:#1e2ecf;fill-opacity:1.0000000;stroke:none;stroke-width:2.0000000;stroke-miterlimit:4.0000000;stroke-dashoffset:0.0000000;stroke-opacity:1.0000000"
         transform="matrix(0.571429,0.000000,0.000000,0.837210,129.2857,34.52408)" />
      <path
         id="path1638"
         d="M 353.00000,245.86218 C 353.00000,257.73018 343.59200,267.36218 332.00000,267.36218 C 320.40800,267.36218 311.00000,257.73018 311.00000,245.86218 C 311.00000,233.99418 320.40800,224.36218 332.00000,224.36218 C 343.59200,224.36218 353.00000,233.99418 353.00000,245.86218 z "
         style="fill:#000000;fill-opacity:1.0000000;stroke:none;stroke-width:2.0000000;stroke-miterlimit:4.0000000;stroke-dashoffset:0.0000000;stroke-opacity:1.0000000"
         transform="matrix(0.357143,0.000000,0.000000,0.674419,195.9286,76.04816)" />
    </g>
    <g
       transform="matrix(0.144857,0.000000,0.000000,9.790296e-2,89.80679,25.19761)"
       id="g1640">
      <path
         id="path1642"
         d="M 353.00000,245.86218 C 353.00000,257.73018 343.59200,267.36218 332.00000,267.36218 C 320.40800,267.36218 311.00000,257.73018 311.00000,245.86218 C 311.00000,233.99418 320.40800,224.36218 332.00000,224.36218 C 343.59200,224.36218 353.00000,233.99418 353.00000,245.86218 z "
         style="fill:#ffffff;fill-opacity:1.0000000;stroke:none;stroke-width:2.0000000;stroke-miterlimit:4.0000000;stroke-dashoffset:0.0000000;stroke-opacity:1.0000000"
         transform="translate(-4.000000,-6.000000)" />
      <path
         id="path1644"
         d="M 353.00000,245.86218 C 353.00000,257.73018 343.59200,267.36218 332.00000,267.36218 C 320.40800,267.36218 311.00000,257.73018 311.00000,245.86218 C 311.00000,233.99418 320.40800,224.36218 332.00000,224.36218 C 343.59200,224.36218 353.00000,233.99418 353.00000,245.86218 z "
         style="fill:#1828ce;fill-opacity:1.0000000;stroke:none;stroke-width:2.0000000;stroke-miterlimit:4.0000000;stroke-dashoffset:0.0000000;stroke-opacity:1.0000000"
         transform="matrix(0.571429,0.000000,0.000000,0.837210,129.2857,34.52408)" />
      <path
         id="path1646"
         d="M 353.00000,245.86218 C 353.00000,257.73018 343.59200,267.36218 332.00000,267.36218 C 320.40800,267.36218 311.00000,257.73018 311.00000,245.86218 C 311.00000,233.99418 320.40800,224.36218 332.00000,224.36218 C 343.59200,224.36218 353.00000,233.99418 353.00000,245.86218 z "
         style="fill:#000000;fill-opacity:1.0000000;stroke:none;stroke-width:2.0000000;stroke-miterlimit:4.0000000;stroke-dashoffset:0.0000000;stroke-opacity:1.0000000"
         transform="matrix(0.357143,0.000000,0.000000,0.674419,195.9286,76.04816)" />
    </g>
    <path
       sodipodi:nodetypes="ccc"
       id="path1648"
       d="M 139.43865,62.204825 C 141.28715,65.827000 146.33897,64.148042 151.16648,62.204825 C 145.84262,62.764492 142.17387,63.174054 139.43865,62.204825 z "
       style="fill:url(#linearGradient28240);fill-opacity:1.0000000;fill-rule:evenodd;stroke:none;stroke-width:1.0000000px;stroke-linecap:butt;stroke-linejoin:miter;stroke-opacity:1.0000000" />
    <path
       sodipodi:nodetypes="ccccc"
       id="path1650"
       d="M 161.57996,85.855850 L 162.84355,85.979110 L 164.21491,100.49187 L 160.74972,100.95765 L 161.57996,85.855850 z "
       style="fill:#700000;fill-opacity:1.0000000;stroke:none;stroke-width:2.0000000;stroke-miterlimit:4.0000000;stroke-dashoffset:0.0000000;stroke-opacity:1.0000000" />
    <path
       style="fill:#000000;fill-opacity:1.0000000;fill-rule:evenodd;stroke:none;stroke-width:1.0000000px;stroke-linecap:butt;stroke-linejoin:miter;stroke-opacity:1.0000000"
       d="M 141.63609,50.146735 C 140.84419,51.433565 139.69119,53.549153 139.85545,54.521593 C 140.01972,55.494033 141.50783,55.284065 142.29779,55.844675 L 142.62864,55.366785 C 141.93395,54.873775 140.84571,55.358770 140.71065,54.559220 C 140.57560,53.759660 141.39173,51.644355 142.13236,50.440815 L 141.63609,50.146735 z "
       id="path1652"
       sodipodi:nodetypes="ccccccc" />
    <path
       style="fill:#000000;fill-opacity:1.0000000;fill-rule:evenodd;stroke:none;stroke-width:1.0000000px;stroke-linecap:butt;stroke-linejoin:miter;stroke-opacity:1.0000000"
       d="M 142.93035,57.799717 C 139.12680,58.177505 136.79693,61.100755 134.86898,63.220175 C 134.86898,63.220175 141.10648,59.763891 143.07065,59.834040 C 142.93035,59.342996 143.14080,58.711655 142.93035,57.799717 z "
       id="path1656"
       sodipodi:nodetypes="cccc" />
    <path
       style="fill:#000000;fill-opacity:1.0000000;fill-rule:evenodd;stroke:none;stroke-width:1.0000000px;stroke-linecap:butt;stroke-linejoin:miter;stroke-opacity:1.0000000"
       d="M 143.79875,57.655349 C 147.18070,58.001467 153.64400,60.625104 153.94460,63.114770 C 153.94460,63.114770 146.05903,58.896922 144.20580,59.551493 C 144.19277,59.040966 143.87078,58.588479 143.79875,57.655349 z "
       id="path1658"
       sodipodi:nodetypes="cccc" />
    <path
       sodipodi:nodetypes="ccccc"
       id="path1666"
       d="M 141.27046,71.649230 C 144.90374,82.872300 149.97453,92.595370 155.73281,101.19344 L 159.41846,101.08145 C 153.68072,91.873470 147.69298,81.478000 144.26774,70.270030 C 144.26774,70.270030 142.23165,70.894120 141.27046,71.649230 z "
       style="fill:url(#linearGradient28242);fill-opacity:1.0000000;fill-rule:evenodd;stroke:none;stroke-width:1.0000000px;stroke-linecap:butt;stroke-linejoin:miter;stroke-opacity:1.0000000" />
    <path
       sodipodi:nodetypes="ccccccccccccc"
       id="path2436"
       d="M 138.68848,68.130950 L 138.43848,78.380950 L 147.75098,72.693450 L 147.75098,74.130950 L 151.43848,74.443450 L 151.37598,72.505950 L 163.50098,77.943450 L 162.25098,65.880950 L 151.56348,71.318450 L 151.31348,69.505950 L 147.56348,69.255950 L 147.56348,71.193450 L 138.68848,68.130950 z "
       style="fill:url(#linearGradient28244);fill-opacity:1.0000000;fill-rule:evenodd;stroke:none;stroke-width:1.0000000px;stroke-linecap:butt;stroke-linejoin:miter;stroke-opacity:1.0000000" />
    <path
       style="fill:url(#linearGradient28246);fill-opacity:1.0000000;fill-rule:evenodd;stroke:none;stroke-width:1.0000000px;stroke-linecap:butt;stroke-linejoin:miter;stroke-opacity:1.0000000"
       d="M 138.49393,28.032090 L 137.95675,30.631765 C 145.62342,32.860932 155.86443,32.509010 164.71860,31.550677 C 164.70002,31.191709 164.36893,29.032090 164.36893,29.032090 C 155.84810,29.907090 144.95226,29.844590 138.49393,28.032090 z "
       id="path1466"
       sodipodi:nodetypes="ccccc" />
    <path
       style="fill:url(#linearGradient28248);fill-opacity:1.0000000;fill-rule:evenodd;stroke:none;stroke-width:1.0000000px;stroke-linecap:butt;stroke-linejoin:miter;stroke-opacity:1.0000000"
       d="M 150.74393,29.594590 C 179.26476,33.427923 174.22310,16.198757 152.30643,21.969590 C 131.16059,14.511257 126.07726,31.802923 150.74393,29.594590 z "
       id="path2448"
       sodipodi:nodetypes="ccc" />
    <path
       sodipodi:type="arc"
       style="fill:url(#linearGradient28250);fill-opacity:1.0000000;stroke:none;stroke-width:2.0000000;stroke-miterlimit:4.0000000;stroke-dashoffset:0.0000000;stroke-opacity:1.0000000"
       id="path3498"
       sodipodi:cx="107.09375"
       sodipodi:cy="56.406250"
       sodipodi:rx="3.7187500"
       sodipodi:ry="1.6562500"
       d="M 110.81250 56.406250 A 3.7187500 1.6562500 0 1 1  103.37500,56.406250 A 3.7187500 1.6562500 0 1 1  110.81250 56.406250 z"
       transform="translate(44.30643,-35.21791)" />
    <path
       id="path3631"
       d="M 151.40274,19.543750 C 149.59228,19.543750 148.26497,20.155435 147.93349,20.918750 C 135.05228,18.197440 130.35138,25.403071 138.40088,28.481250 L 137.99457,30.543750 C 134.99623,33.332756 133.60206,36.822349 132.27500,39.200000 C 133.02633,39.463610 134.49581,39.697256 135.83801,39.918750 C 134.77063,42.630130 134.11901,45.615300 134.11901,48.825000 C 134.11901,53.295900 135.30321,57.410330 137.27572,60.793750 C 136.42598,61.609750 135.56419,62.467270 134.86912,63.231250 C 134.86912,63.231250 136.32688,62.452840 137.86955,61.700000 C 140.89711,66.320790 145.46691,69.351850 150.65263,69.481250 L 147.55844,69.262500 L 147.55844,69.981250 L 147.49593,69.981250 C 146.57971,69.981250 145.66843,70.080220 144.80805,70.262500 L 138.68217,68.137500 L 138.55715,73.668750 C 136.22774,75.972540 134.77536,79.150360 134.77536,82.700000 L 134.77536,97.637500 C 139.73299,100.09439 147.66941,101.24902 155.71586,101.13750 C 155.72858,101.15652 155.73438,101.18099 155.74711,101.20000 L 159.43514,101.10625 C 159.38516,101.02604 159.32890,100.93664 159.27887,100.85625 C 159.77357,100.82443 160.25654,100.77345 160.74783,100.73125 L 160.74783,100.98125 L 164.21708,100.51250 L 164.21708,100.48125 C 168.35219,99.902480 172.23904,99.020770 175.37493,97.637500 L 175.37493,82.700000 C 175.37492,75.661600 169.72088,69.998360 162.68561,69.981250 L 162.24805,65.887500 L 154.21565,69.981250 L 151.37149,69.981250 L 151.30898,69.512500 L 151.09020,69.512500 C 159.01651,69.459180 165.60797,62.696260 167.37378,53.637500 C 170.47600,53.799880 172.71819,52.975900 175.87500,51.950000 C 170.39141,50.229360 171.14096,38.631737 164.65464,31.575000 C 164.67463,31.572844 164.69717,31.577162 164.71715,31.575000 C 164.70179,31.278136 164.51468,30.001190 164.43586,29.481250 C 175.42740,27.095924 169.97447,18.640184 154.74697,21.575000 C 154.83348,21.434929 155.12203,21.352258 155.12203,21.200000 C 155.12203,20.285750 153.45579,19.543750 151.40274,19.543750 z "
       style="fill:url(#linearGradient28252);fill-opacity:1.0000000;stroke:none;stroke-width:2.0000000;stroke-miterlimit:4.0000000;stroke-dashoffset:0.0000000;stroke-opacity:1.0000000" />
  </g>
  <metadata
     id="metadata73">
    <rdf:RDF>
      <cc:Work
         rdf:about="">
        <dc:title>card</dc:title>
        <dc:description />
        <dc:subject>
          <rdf:Bag>
            <rdf:li>white</rdf:li>
            <rdf:li>card</rdf:li>
          </rdf:Bag>
        </dc:subject>
        <dc:publisher>
          <cc:Agent>
            <dc:title />
          </cc:Agent>
        </dc:publisher>
        <dc:creator>
          <cc:Agent>
            <dc:title>Nicu Buculei</dc:title>
          </cc:Agent>
        </dc:creator>
        <dc:rights>
          <cc:Agent>
            <dc:title>Nicu Buculei</dc:title>
          </cc:Agent>
        </dc:rights>
        <dc:date />
        <dc:format>image/svg+xml</dc:format>
        <dc:type
           rdf:resource="http://purl.org/dc/dcmitype/StillImage" />
        <cc:license
           rdf:resource="http://web.resource.org/cc/PublicDomain" />
        <dc:language>en</dc:language>
      </cc:Work>
      <cc:License
         rdf:about="http://web.resource.org/cc/PublicDomain">
        <cc:permits
           rdf:resource="http://web.resource.org/cc/Reproduction" />
        <cc:permits
           rdf:resource="http://web.resource.org/cc/Distribution" />
        <cc:permits
           rdf:resource="http://web.resource.org/cc/DerivativeWorks" />
      </cc:License>
    </rdf:RDF>
  </metadata>
  <path
     id="text1386"
     style="font-style:normal;font-variant:normal;font-weight:bold;font-stretch:normal;font-size:33.22750092px;font-family:'Bitstream Vera Sans';writing-mode:lr-tb;text-anchor:start;fill:#000000;fill-opacity:1;stroke:none;stroke-width:1px;stroke-linecap:butt;stroke-linejoin:miter;stroke-opacity:1"
     d="m 21.911339,13.162005 h 6.39602 v 21.358742 c -1e-5,2.947125 -0.84173,5.149546 -2.52518,6.607266 -1.67239,1.457713 -4.20864,2.186571 -7.60878,2.186578 l -4.80814,-0.501761 0.66901,-4.443573 3.8401,0.334507 c 1.32904,-2e-6 2.33136,-0.353868 3.00696,-1.061598 0.68667,-0.707734 1.03,-1.748206 1.03001,-3.121419 V 13.162005"
     inkscape:connector-curvature="0"
     sodipodi:nodetypes="ccccccccccc" />
  <path
     id="text1386-9"
     style="font-style:normal;font-variant:normal;font-weight:bold;font-stretch:normal;font-size:33.22750092px;font-family:'Bitstream Vera Sans';writing-mode:lr-tb;text-anchor:start;fill:#000000;fill-opacity:1;stroke:none;stroke-width:1px;stroke-linecap:butt;stroke-linejoin:miter;stroke-opacity:1"
     d="m 117.32809,176.1549 h -6.39602 v -21.35874 c 1e-5,-2.94713 0.84173,-5.14955 2.52518,-6.60727 1.67238,-1.45771 4.20864,-2.18657 7.60878,-2.18657 l 4.80814,0.50176 -0.66902,4.44357 -3.84009,-0.33451 c -1.32904,0 -2.33136,0.35387 -3.00696,1.0616 -0.68667,0.70773 -1.03001,1.74821 -1.03001,3.12142 v 21.35874"
     inkscape:connector-curvature="0"
     sodipodi:nodetypes="ccccccccccc" />
</svg>
